<mxfile host="app.diagrams.net" modified="2021-01-19T12:24:24.664Z" agent="5.0 (Windows NT 10.0; Win64; x64) AppleWebKit/537.36 (KHTML, like Gecko) Chrome/87.0.4280.141 Safari/537.36" etag="yRsiJVBTW8Ea-DCUBCAN" version="14.2.4" type="github">
  <diagram id="RtYBvidma2i4aKOaTyV1" name="Page-1">
    <mxGraphModel dx="1422" dy="762" grid="1" gridSize="10" guides="1" tooltips="1" connect="1" arrows="1" fold="1" page="1" pageScale="1" pageWidth="827" pageHeight="1169" math="0" shadow="0">
      <root>
        <mxCell id="0" />
        <mxCell id="1" parent="0" />
        <mxCell id="6JY8YTlF_zlxLqDkcj-Z-40" value="&amp;nbsp;Consumer release" style="rounded=1;whiteSpace=wrap;html=1;verticalAlign=top;align=left;" parent="1" vertex="1">
          <mxGeometry x="40" y="570" width="700" height="130" as="geometry" />
        </mxCell>
        <mxCell id="6JY8YTlF_zlxLqDkcj-Z-16" value="Shared &lt;br&gt;subscription" style="rounded=1;whiteSpace=wrap;html=1;verticalAlign=top;align=left;" parent="1" vertex="1">
          <mxGeometry x="460" y="200" width="200" height="90" as="geometry" />
        </mxCell>
        <mxCell id="6JY8YTlF_zlxLqDkcj-Z-15" value="&amp;nbsp;Consumer CI" style="rounded=1;whiteSpace=wrap;html=1;verticalAlign=top;align=left;" parent="1" vertex="1">
          <mxGeometry x="40" y="40" width="700" height="140" as="geometry" />
        </mxCell>
        <mxCell id="6JY8YTlF_zlxLqDkcj-Z-3" value="" style="edgeStyle=orthogonalEdgeStyle;rounded=0;orthogonalLoop=1;jettySize=auto;html=1;" parent="1" source="6JY8YTlF_zlxLqDkcj-Z-1" target="6JY8YTlF_zlxLqDkcj-Z-2" edge="1">
          <mxGeometry relative="1" as="geometry" />
        </mxCell>
        <mxCell id="6JY8YTlF_zlxLqDkcj-Z-1" value="Run contract tests" style="rounded=1;whiteSpace=wrap;html=1;" parent="1" vertex="1">
          <mxGeometry x="130" y="100" width="120" height="60" as="geometry" />
        </mxCell>
        <mxCell id="6JY8YTlF_zlxLqDkcj-Z-5" value="" style="edgeStyle=orthogonalEdgeStyle;rounded=0;orthogonalLoop=1;jettySize=auto;html=1;" parent="1" source="6JY8YTlF_zlxLqDkcj-Z-2" target="6JY8YTlF_zlxLqDkcj-Z-4" edge="1">
          <mxGeometry relative="1" as="geometry" />
        </mxCell>
        <mxCell id="6JY8YTlF_zlxLqDkcj-Z-2" value="Generate contract" style="rounded=1;whiteSpace=wrap;html=1;" parent="1" vertex="1">
          <mxGeometry x="330" y="100" width="120" height="60" as="geometry" />
        </mxCell>
        <mxCell id="6JY8YTlF_zlxLqDkcj-Z-9" value="" style="edgeStyle=orthogonalEdgeStyle;rounded=0;orthogonalLoop=1;jettySize=auto;html=1;" parent="1" source="6JY8YTlF_zlxLqDkcj-Z-4" target="6JY8YTlF_zlxLqDkcj-Z-8" edge="1">
          <mxGeometry relative="1" as="geometry" />
        </mxCell>
        <mxCell id="6JY8YTlF_zlxLqDkcj-Z-11" value="" style="edgeStyle=orthogonalEdgeStyle;rounded=0;orthogonalLoop=1;jettySize=auto;html=1;dashed=1;" parent="1" source="6JY8YTlF_zlxLqDkcj-Z-4" edge="1">
          <mxGeometry relative="1" as="geometry">
            <mxPoint x="730" y="130" as="targetPoint" />
          </mxGeometry>
        </mxCell>
        <mxCell id="6JY8YTlF_zlxLqDkcj-Z-4" value="Publish contract&lt;br&gt;(Main build only)&lt;br&gt;Tag: &lt;b&gt;main&lt;/b&gt;" style="rounded=1;whiteSpace=wrap;html=1;" parent="1" vertex="1">
          <mxGeometry x="530" y="100" width="120" height="60" as="geometry" />
        </mxCell>
        <mxCell id="6JY8YTlF_zlxLqDkcj-Z-30" value="Webhook trigger main build" style="edgeStyle=orthogonalEdgeStyle;rounded=0;orthogonalLoop=1;jettySize=auto;html=1;entryX=0;entryY=0.5;entryDx=0;entryDy=0;exitX=0.25;exitY=1;exitDx=0;exitDy=0;" parent="1" source="6JY8YTlF_zlxLqDkcj-Z-8" target="6JY8YTlF_zlxLqDkcj-Z-21" edge="1">
          <mxGeometry x="-0.3214" relative="1" as="geometry">
            <mxPoint as="offset" />
          </mxGeometry>
        </mxCell>
        <mxCell id="6JY8YTlF_zlxLqDkcj-Z-8" value="Pact Broker" style="rounded=1;whiteSpace=wrap;html=1;verticalAlign=top;" parent="1" vertex="1">
          <mxGeometry x="530" y="220" width="120" height="60" as="geometry" />
        </mxCell>
        <mxCell id="6JY8YTlF_zlxLqDkcj-Z-14" value="" style="edgeStyle=orthogonalEdgeStyle;rounded=0;orthogonalLoop=1;jettySize=auto;html=1;dashed=1;" parent="1" target="6JY8YTlF_zlxLqDkcj-Z-1" edge="1">
          <mxGeometry relative="1" as="geometry">
            <mxPoint x="50" y="130" as="sourcePoint" />
          </mxGeometry>
        </mxCell>
        <mxCell id="6JY8YTlF_zlxLqDkcj-Z-18" value="" style="aspect=fixed;html=1;points=[];align=center;image;fontSize=12;image=img/lib/mscae/Key.svg;" parent="1" vertex="1">
          <mxGeometry x="480" y="239.12999999999988" width="13.49" height="21.75" as="geometry" />
        </mxCell>
        <mxCell id="6JY8YTlF_zlxLqDkcj-Z-19" value="" style="shape=image;verticalLabelPosition=bottom;labelBackgroundColor=#ffffff;verticalAlign=top;aspect=fixed;imageAspect=0;image=data:image/png,iVBORw0KGgoAAAANSUhEUgAAAZAAAAGQCAYAAACAvzbMAAAgAElEQVR4Ae2dC7hV477GnX3O3ufsc7TllruitLdQSiKkUgpRUikqSpFEUSjXitzaRaGkhKSUdJNLiugiFQm5hUKF5NJ22exjn7O/8/z+zrBXy1xrzTXWnHOMb4x3PM961m1exny/y/v9b+9/B6dLCAgBISAEhEAIBHYI8Rw9RQgIASEgBISAE4FoEggBISAEhEAoBEQgoWDTk4SAEBACQkAEojkgBISAEBACoRAQgYSCTU8SAkJACAgBEYjmgBAQAkJACIRCQAQSCjY9SQgIASEgBEQgmgNCQAgIASEQCgERSCjY9CQhIASEgBAQgWgOCAEhIASEQCgERCChYNOThIAQEAJCQASiOSAEhIAQEAKhEBCBhIJNTxICQkAICAERiOaAEBACQkAIhEJABBIKNj1JCAgBISAERCCaA0JACAgBIRAKARFIKNj0JCEgBISAEBCBaA4IASEgBIRAKAREIKFg05OEgBAQAkJABKI5IASEgBAQAqEQEIGEgk1PEgJCQAgIARGI5oAQEAJCQAiEQkAEEgo2PUkICAEhIAREIJoDQkAICAEhEAoBEUgo2PQkISAEhIAQEIFoDggBISAEhEAoBEQgoWDTk4SAEBACQkAEojkgBISAEBACoRAQgYSCTU8SAkJACAgBEYjmgBAQAkJACIRCQAQSCjY9SQgIASEgBEQgmgNCQAgIASEQCgERSCjY9CQhIASEgBAQgWgOCAEhIASEQCgERCChYNOThIAQEAJCQASiOSAEhIAQEAKhEBCBhIJNTxICQkAICAERiOaAEBACQkAIhEJABBIKNj1JCAgBISAERCCaA0JACAgBIRAKARFIKNj0JCEgBISAEBCBaA4IASEgBIRAKAREIKFg05OEgBAQAkJABKI5IASEgBAQAqEQEIGEgk1PEgJCQAgIARGI5oAQEAJCQAiEQkAEEgo2PUkICAEhIAREIJoDQkAICAEhEAoBEUgo2PQkISAEhIAQEIFoDggBISAEhEAoBEQgoWDTk4SAEBACQkAEojkgBISAEBACoRAQgYSCTU8SAkJACAgBEYjmgBAQAkJACIRCQAQSCjY9SQgIASEgBEQgmgNCQAgIASEQCgERSCjY9CQhIASEgBAQgWgOCAEhIASEQCgERCChYNOThIAQEAJCQASiOSAEhIAQEAKhEBCBhIJNTxICQkAICAERiOaAEBACQkAIhEJABBIKNj1JCAgBISAERCCaA0JACAgBIRAKARFIKNj0JCEgBISAEBCBaA4IASEgBIRAKAREIKFg05OEgBAQAkJABKI5IASEgBAQAqEQEIGEgk1PEgJCQAgIARGI5oAQEAJCQAiEQkAEEgo2PUkICAEhIAREIJoDQkAICAEhEAoBEUgo2HL/pP/93/91P/30k/vxxx/dd99957Zt2+a++uort3XrVrdlyxb7+vTTT92mTZvcxx9/7D766KMyv3gsz/nss89+eQ1e8y9/+Yv75ptv3F//+lf33//93+4f//hH7j+QXlEICIHEIyACickQs6lv2LDBrVq1yj3xxBPu/vvvd6NGjXJDhw51/fv3d5deeqnr3bu3a9eunWvZsqVr0qRJmV8dO3Z0vXr1cv369bPnDxgwwI0ePdpNnjzZzZgxw73wwgvu3XffdT/88ENMUNBtCAEh4BMCIpACjtbf//53O/1jQaxdu9YtW7bMPfnkk27q1Klu7NixbtiwYY5Nvnv37q5NmzauWbNmrkGDBq5WrVruT3/6k6tevbqrXLmy+93vfud22GGHMr923XVXd8ABB7g//vGP9vxDDjnENW/e3EjorLPOcn369HGDBw9248aNc9OmTXPz5s1zixcvdq+99pr78MMP7V4LCI/eSggIAc8QEIEUcMBwTb311ltu9uzZ7tZbb3XdunVzRx99dLlIIRviCPOY3Xff3dWvX9916tTJDRkyxAjlnXfeKSA6eishIAR8Q0AEkqcRI55B7GHFihVmYdxyyy124scFdcIJJ7gjjjjC1ahRw7FxY1H867/+a5kWRRhiyPY5//Ef/+F22203s1gOP/xw17hxY3fmmWea+wuyw0JZvXq1xWXyBJleVggIAc8QEIHkcMD+9re/uc8//9ziCkuXLnVTpkxx1113nWvfvr2rU6eO22WXXSInimwJhcdBbNwzhEI8BRfbY489ZnGadevWWWCez0wCgC4hIATSh4AIJIdj/sknn7i5c+e6K664wjVt2tRiFlgYf/jDHxwnfKyMf/mXf4nU0igPgXCv3DP3vtNOO7kqVaq4gw46yGIzgwYNcjNnznR8ZjLHdAkBIZA+BEQgIcecUzcpsASbn332WXfvvfe6K6+80gLUdevWNXfQb3/7W2/IIlti4TPh6qpXr55r27atBf3J7CJz7IMPPrD04JCQ6mlCQAh4hoAIJMSAkU1FQJwaCzKXLrvsMnPz/Nd//ZdXFka2pFHa4/7t3/7NssTOO+88c2+RFkx9CTEgubZCTC49RQh4hIAIJMRgrVmzxk2YMMFqLAiI16xZ0zKp2Ex9clGVRgzZ/u83v/mNuehIFz7mmGMss2zkyJGOGBBJBLqEgBBILgIikCzGlpM0hX4EjhcsWOBuvPFGd9ppp7l9993X/fu//3vi3FTZkkemx+21116uUaNG5tp68MEH3fLly3+pKZFFksVk00OEgEcIiECyGCwyjd544w03YsQIV7t2bbfHHnsYcfgWFM+04ef6b2BC9hbuPIofyUCjqh78wFGXEBACyUFABFLCWHJaZsNDWuTuu+92F1xwgbloyKjKthI815uzb69XqVIlV61aNcva6tmzpxEwle5Yc8SRdAkBIeA3AiKQDOOHNhQB8pdfftlqHxo2bOh23nlnuaqykE8pieQgE6w3UpzJWnv//fdNMPJ//ud/JOaYYQ7qT0LABwREIBlGCQmPiRMnulatWlndA1YHAfKSNkf9vWxdLlxbuLX22Wcfk2+59tprLZ707bffyhrJMAf1JyHgAwIikCKjtHnzZhMTvPnmmy1IThFgEms5oia83//+9yYSef7557sxY8a4JUuWWEGi3FpFJqN+FAIeICACcc7hRqF24emnnzbJdIK/UW+yaXj/HXfc0e2///4mVz9//nzrfaL+JB7sGrpFIfD/CKSeQNiwqKAePny4SagjmY7LKg0beNSfEbfgf/7nf1odzUknneQuv/xyK8z84osvrMpfq1QICIF4I5BaAsFdQle+lStXWuOmY4891tE/I+pNNa3vT3yEviU9evSwtF96pWzcuNEy4VQ/Eu9NRHeXXgRSSyCQB705LrnkEkfxG355qqrTuoFH/bmp4MciYRwQbUQaBQl5WvpiJeoSAkIgfgikjkDo/01fcFJJL774YtOwoq5D5FF2JlWhSAYiwRqh2n/gwIGmcIw1IiKJ3waiO0o3AqkiEAT+KGLDbUWvcSwPSZHEhziKExTWCGm/tN5F7Xf9+vXmdlTtSLo3LX36+CCQKgL56KOPrJ1s165drb4D8pDlEV8CCXqRVK1a1R1//PGub9++bsaMGda0S7Io8dlEdCfpRSAVBILrAxfII4884s455xyT1yh+2tXv8SUSxoZsrYMPPth16dLFjR071lyQGzZskFsrvXuXPnkMEEgFgRDzoFPg2WefrSB5BeRI4kCyWI2IWWJFciDYtm1bDJaRbkEIpBOBxBMI5EFKKOmhKhCMt5WRDUHh1iI2Qr3OiSeeaIkQU6dOtVoeikF1CQEhUDgEEksgQdfA559/3gQRIQ8FzP0nkKIkQ6925GaQjKelML1H6NHO2JNtp0sICIH8IpBYAiHbijqP3r17O7rl4UNXwDxZBMJ4kvKLckCNGjXMrTV58mTL1CLjTpcQEAL5RSBxBMLJk6D5ihUr3KBBg1y9evXM8hB5JIs8iloi/EwtDyTSunVrN2TIEDdz5kw7QChbK78biF493QgkjkBwX2zatMnddddd1nIWiYzim41+Ty6ZQCRYJLi1xo0bZ22IsUaxSOTWSvdmp0+fewQSRyAEzUePHu1atmzp8JETdBVhJJcwio9t4Nbac889Xf369S3tl97spPx+//33uV9BekUhkGIEEkUgn332mVu4cKE744wzrMq8+Oai39NDJIw1Bwgq2U8//XRHj5d58+aZRfLjjz86CTSmeNfTR88ZAokiEDKuLr30UhUKel7rkQ+iJwMPbS3cWlu2bDGV35ytIr2QEEgpAokgEAKlpG/edtttrlatWo5GRfnYhPSa/lowuDL3228/16hRI9e9e3c3fvx4t2bNGrm1Urrx6WPnBoFEEMiXX35prquzzjpLxCHro9Q5QIviSpUqWfMwEi1efvllh+tTbq3cbCh6lXQhkAgCWbt2revZs6dJgMtK8NdKKMTY0XcEa4TmYYcccojr2LGju+eee9z777/vvvvuu3Stfn1aIVBBBLwnkI8//tg99NBDVu+hVrQij/KQEHERerLTTvfqq692s2bNcu+884779ttvHZLxuoSAECgdAa8JhLx++kRccMEFbueddy7VdVGejUWPTR8RkbFF9h6SKCgYINIoSZTSNw/9Vwh4SyAsbvL6Bw8ebIFz6Vylb9PPJdHj1tp3333dMcccY6rNY8aMsSA71oguISAEMiPgLYF88cUXJlfCqVH9zEUeuSITDiK77babubVuuOEGawPw9ttvO5R+5dbKvInor+lFwFsCWb16tWld1a5d2xEY5StXm4heJ72ExDyimj0gkuOOO87UnIm1qZI9vRulPnlmBLwjEE6B33zzjTUTqlu3rmXTaMNP74afz7FH6Re5eNxa9GWfMGGCW7lypfvhhx8yryb9VQikDAHvCARXwhtvvOGuu+46WRyq+SjIHAhqR1q0aGHWCLUjuFAlh5Ky3VIf91cIeEcgn376qbvzzjtdq1atCrJ55POEq9f2w3LCpUWQnUw/GpO1adPGTZkyxVxaJHPoEgJpRcArAsF9RYolUhR//OMfRSCyQHI+BwJrA9dVtWrVHG5S5E+wPiCObt26ueuvv94999xzpqclKyStW6c+Nwh4RSBUCi9evNgdffTR1mEwbSf4oIoa3zwbHYFe6heKf/F3HsOpmdOzEgx+bemADRiCHd0q0U+jEHWvvfayCnVIg54iV111lfWWweKYP3++pfbivlKjKm2gQsAzAnn99dfd7bff7g466CDbINNGIBAD8uQ1a9Z0derUsVTTTp06ueJfVFYfeuihrmrVquZ2YbNMG1ZlfV6I4sgjjzSpdwpRr732WpM0mTFjhnv66acdys70WEcmB5kTsrBQ8aXAkI6Xsjy0fQoBzwhk7ty57pxzznFVqlRJ/IaI5YDPHRJAs4nNrnnz5tb3mz7vAwYMMDJ94IEHXPEvSBZZe1x99MIgFRVXDG4/Gi3RpTENVkmQjlu5cmW39957G/GCw7HHHusQ3sS6QAdr9uzZRhabN282UUV1LtTWKASyQ8ArF9bw4cNtE6BwsKwTpu//pzUr6aMXXXSRoyr6mWeesfjPxo0bHYkEnIbpvsiJuPgXf+f/SNx/8MEHVnDJyZqmShReQiS4uHzHqKz7x2LD0sDlCWEMGzbMgcOrr75qHQo///xz9/XXX5v2Fam5ki7JbtPQo4RAgIAXBIK/mcXer18/k+JOoksGfzyWVYMGDcwldc0117j777/fPfvss0YcfH5cJ+U9HbMpUjeDC4biS07bWCjUNTRp0sRO5pBVWZtx3P+PRcXn2GOPPdzhhx/uWrdu7S6++GLHoYOWto8//rhJt4ODqsqD5a/vQqBiCHhBIJyoX3rpJXfmmWd6v9EV34ixBAjiogqLi4r6lgULFtipOF8poug7vfvuu+6OO+5wp556qqtevboFkH0LuHOQwMog+I1rjhTbk08+2V1++eVu2rRpRrwKdldsg9CzhUBpCHhBIO+9954bNWqU+fKLb8C+/86JmRgFuku4qdBdokEWKcvltTZKG+ii/+O1keX48MMPLauNuhpiJWQiYQn5gulOO+1kQppkSw0dOtR0qyjygxxpEkXWnoLdRUdePwuB3CLgBYEgH9G1a1dXo0YNbza3sjZhTs4HH3yw+ebZwFetWuX+8pe/FFywD98/PTAIxFPj0LBhQ3MDxTVGQkCcGA5ptl26dHFDhgxxU6dONfcU+OkSAkKgcAh4QSC4dBBNTFLDqF122cV89Fgdcbhw9RCcHzFihFlEuNXKIsEo/k/Pe9JuaSJGii2taHUJASEQDQKxJhBcOBRtcTomDTMJwV423Xr16rn+/fuby4pMqThcuHqwRt5880336KOPmtIxrjUy3qJOWjjwwANNuob40MMPP2wpt2SXkX2GO06XEBAC0SAQawIhiMwpk/RL/PNRnHhz+Z6c6glYU6PxwgsvWBpuNMNe+rviCiKWQNrvCSecYK5D4g25xKK01yKjiloVDg1Ynuedd54bP368xYfU4Kn0sdN/hUAhEYg1gZC2inzEhRdemAjpEsiD3tuQR5xTSbFGcA1hHS1btsyymihkLG3Tz+X/iL8Q5+jcubObNGmS1W2oAryQ24LeSwhkh0CsCYRNbOLEie60006zdM1cblKFfi1STHv27OkWLVpkGULZDU+0j8ICZONesmSJKSATZD/iiCMc8Ztcu7WCqnEkWDp06OBuueUW63ePq4o6Fl1CQAjED4FYEwippqS3EjPwKb20KDlxmkawjywyqqB93Qy3bt1qtTjIf5ABhSZXpUqVciLWSJyFIkqy0ij+Q7ImLrGh+C1Z3ZEQiA8CsSYQ/N3oPiFHkesTb9FNPp8/01+bUzWaS1RB//TTT/EZ/XLcCVlaJDS89tprRoSDBg1yzZo1s1hFRVN+0ac6//zzrfIeAcNNmzap6185xkYPFQJRIRBbAsEPTzEY7gxO8L6K/wUZVwSlk3Lh1mKjp7izXbt25tYqD8kzlpAO1eNHHXWUGzhwoJs3b57DyvGJYMkSJJYFHhR/QrClfQW6W8ocS8pK0OeILYEQQCcDq2XLlkYevhII6sFUlyepyI2Nk42ejROVACRRkBChODIba454B1l1jC19NqgcD6PzFfXyBQOsSsQZSTZYunRpqV9BlTyuWV1CIAkIxJZAWGQ0j2ratGlWm1I2G1chH0PRI7LhVJkT9/DpZJ3txOYkHfSof+yxxyxehbYWul4lkQkBeKwy9KqICREkj1NqLokbKBm/8cYblvCAZQTJ3X333e62226zboTU8JCKfckll1iKMUq/yKmU9UXfFg4UCFnyfL4QzSRhgHlCwsj06dMt8xD1Bcg5SQePbOeVHucPArElEMx9BPGQ4i7kxp+r99p3332t3wSn0jRcbLy4HNkE2Sip3yAwTvEnFgffd911VwvAX3nlldbZj+dEdUHoHFIQ6qQPCE2jsHgZr1mzZplVBVFQg0IWYP369a0ehphWRWM+RecYPV8OOOAA69fCYQmXIHE/tL3uvfdeKzaFzCBa7hMXGaSdL6HNqMZD7+snArElELJwbrzxRgtAF11wvvxMRhES4iz4NFyBWwvZeWTjIRK0qoiNkGWFaCSCjffdd5/76KOPbPPmOVFdxFvWrFljZHHrrbda8y028MMOO8xUfdnUyTTjvrGacLnxOcgGzKU7NcjS4/Up1oSgwAwrDu03momhCECSAfeJhUJnTg5YUeIX1bjpfeOFQGwJBKVYTH0fBRQJDrdt29YylpLouiprCmNZcKLHrUXaL5sf7hpcQQg3Fvoig4x4zVtvveUWLlxoxYm4jfr27WvWEmnJyKXEVe0A4qKNc9CnHSzpc4Ie2HPPPfeLq0tWSaFnlt4vtgTCBoRvmZOYL1ZHcJ8o2lK/Qjpqmi8C42zcuF82bNhQ0DgQ8RneHzcV4/DKK69YHAOriEOJ78KcWCtYJ7jY0IrDmsL6U2fFNK+4wn/22BIImUstWrSwVM9gY/blO6nHCBKS2pnmi1TsINbARl5Il8v69evdk08+aXpe9IanWRfBe3rMY2n4WpgarAHuHxLB1UYqNHEagvoE4wnAQ9zgr0sI5BOB2BIIAU0C6AReg0Xjy/fLLrvMArIEO3UVBgEsDk7gzBvk/0ePHm2y77QIJpjvy9wJc58kKeDmqlatmolf4jZEtfj555+3FGniJWl0pRZm5qX7XWJLIAQKyeShgVCYRRXlc0aOHKksmQKvKywc+sezeTJvCESjfsxJnQ02yvmQ7/cmqM8Xag1ku6FkjOv3xBNPtMA79SdKBy7whEzJ28WWQOjQR0ZKSfUE+V6UYV4f1wjB2AcffDAl06f8HxMrgcJBNvyKXtTX8Fq4C6mnwHWILArxjaT0jgkzD3kO6wYSxYon7kNLBHAiiUFkUtGZp+cHCMSWQF588UXvTo2kfHLqmzNnToCvvhdD4KWXXrLeHjSuClNAiF+frKpAan7cuHFGHGDv02EjLDGEeR64II8PwY4ZM8ZqXeg+iYtVsirFJqh+LRcCIpAddsgZUeGDptIYV4quzAiMHTvW6hponRtGH4xNjzoSXod+IfQpofEUm2TSXVVhyIPngAvWsRp0ZZ6T+mt4BEQgOSQQcvX79etnJ7zwQ5LsZw4ZMsQ2M7KiSHVGQwq3VlkX6am4qyjOpFPiSSed5Kj29z2bKiwpVOR5uFnJ2gL/mTNnmmyL3FplzUD9PxMCIpAcEghNo5A5x02jKzMCEEiw+VGPQZMqSKSsC5kUJPEhjuD5+h7eeibgTj8Xqu8pqoyiwLOsMdf/44+ACCSHBEL2DxXC9MzQlRmBogRCsBsSwWqjZuO7777b7kkUAqJVhTYVj2ncuLHJi4g4whNHgB1uLaw3Au3ofJ177rnurrvu+kUmZbuB0C9CoAQERCA5JBDavSKAp9NcCbPNOVeUQILNDP2piy66yOoWCO5Ss4CGGCKCs2fPNiulNIXf4HX0PRyxQCaIOh5//PGW9vvUU0+Zu5BiRNWPlDyX9R/nRCA5JBAqgidPnmzSHZpcmRHIRCA0DKNCvE2bNqaXRQX//Pnz3dVXX23V4xQCpqGeIyoCDGpIqB8hm434FIrJuBYpQtQlBEpCQASSQwI5/PDD3e23324n55IAT/vfMxEIGyckQlCcfiJXXHGF69ixo7lWyB7KpXx6VJu0T+8LiSD70rNnT3NrUdFODEqXECiOgAgkhwSiIHrx6fXr30siEJ822DTcK24tLBLcsqj/YhGSLadeJL+e02n+iwhEBFLQ+S8CCRenKDRpBW4tBBupb2rWrJm5tegSKmukoEsm1m8mAskhgVSvXt316tXLvfDCC7Ee9ChvTgTiB4EUJyxSfkl2oEfPhAkTHEoRJDxE2VUyynms9/4ZARFIDgmElMhWrVo5+mjryoyACMRPAilKKLhq6UOC4gJuLcnGZ57rafirCCSHBMIprWbNmtbxLg2TJ8xnFIH4TyC4tZjnrVu3tsJZRBppGqYrfQjElkCWL19u2TcE84qefuL8M9lCZA2RiYX0hk5mv15QIhD/CYQ1yLqkBwkijWiSjR8/3roibtmyxeb+r0def0kiArElkBUrVpjUgk9aR0HgEWlxBP9QjdW1PQIikGQQSDDX6blC2i/V7D169DD37caNG7cfdP2WWARiSyCvvvqqIyjNiT7OVkeme0OR9+mnn7a2oomdOSE/mAgkGQRSfN6T8st6xRrBAl+0aJFJ7v/9738POVP0NB8QiC2B0C+iUaNGbvfdd/eOQI477jhTjN20aZMPc6Cg9ygCSSaBFCUUguxYIxyiCLKTqaW+IwVdZgV7s9gSCHpSLVu2dHvuuad3BELfhfbt25tPGEFAXf9EQASSfAJBJBPJeJqrDRgwwCTjN2zY8M9JoJ8Sg0BsCeT99993Z511lvV2Lnq68eFnmhshazJt2jQnK2T7tSICST6BsEaJkSBPQ5C9a9euJsWPthaxweKqy9vPEP3mEwKxJRACcWgiMQF9II2i98jiwQrp27evW7hwoU/zIe/3KgJJD4GwDshMDLK1SPt96KGH3HvvvZf3eaY3KAwCsSUQfKejR492devW9Y5AIBNqQmi3OmrUKEtrlA/45wktAkkHgRQ9UPEzyTD77befKf3i1po6dapJxuPi/cc//lGY3U7vknMEYksgtNicM2eOO/bYY70kEDq+kZlCMJG+FpLFFoEU31TT+ju9XbBG6J1D8zUOi9RN6fIPgdgSCCeTt956ywLpPi60IE8eWWxcWStXrvRvduThjmWBpNMCKbqGiRHusssu7pBDDnGdOnWyHjr0u9flHwKxJRCquKlqpS8ExUpsyEUnoS8/77bbbiZCd+eddzoSA9KelSUCEYEEa/d3v/udJcmcfvrp7sYbb3RPPPGErZFvv/1Wbi1PuCS2BAJ+TKTevXtb32ZcQsHE8/E7ab10K6RVa5rjISIQEUim9Ytb67TTTjMdubffftsytVSEGH8WiTWBfP/9927YsGEWjPZJ0iTTAqHbXtu2bd2MGTNcmnPiRSAikEzrAy8DmYsNGjSwToj33HOPQ42CIkRpysWXSGJNIEweTu3t2rWznPJME8+nv0Ei3bp1s/qQTz75JJVaWSIQEUhZa5ZsrZNPPtkOj88884wp/X7zzTfx3UVTfGexJpCffvrJLVmyxPXv398ymsqaeHH/P1YUwUNI5KmnnnJbt25N3dQTgYhAylqnxEaoZqcG7IwzzrDaEQXZ47lVxJpAiBXg7rnjjjusrqKsiefL/9EK6tKlixs3bpx7+eWXU6UVJAIRgWS7TilAJDZCk7aBAwe6KVOmOCSOcG2rdiQehBJrAgEi8sOnT59ugXTf4yBFFw41Io0bNzYzHeFIcuGRf0/6whCBiECKroNsf6bbZ9OmTe3Q9frrr7uvvvoqlS7geNDGP+8i9gRCAI0e4yeddJLbZ599vM7EKrpYyCrDnVWrVi37bGPGjLGCQ05XSb5EICKQousg25+pHdl1113doYceahp5FIDrDH0AACAASURBVCFSJ6YrWgRiTyDAwwn9uuuuc0cccURiCCRYOGgFkYFC0JDNlfagVK5DJElM9xWBiECCuR/2O9YIbi0yNJGMX7dunUO5QlfhEfCCQD799FMrMiJPPOyk8+F5lStXts5uN998s/v444/dX//618LPiDy/owhEBJKrtYgFf/zxx5tbi9iIrsIj4AWBEAdBFh1JkJ133tkUPnM1CeP0OmSfULmOpXX22We7u+66y7344ouOFMakFFWJQEQguVpzuLXoF9SwYUOrHUHtYdWqVWaNqHakMGTiBYEEUJCNVbt27USk9Ja1iCCTE044wV177bWW8ouZTmW+724tEYgIpKy5H+b/9GWnE+gNN9zgFixY4NavX28Hr2Dv0Pf8IOAVgcydO9fRb7xKlSqJdmWxgND+IlOLoqqjjz7aDR8+3GIjvru1RCAikDAEUdZzglgiab90MuWwSSW7rvwi4BWB4OdE4uDggw92SUrpLW1x8Dl32mkn6w9/ySWXuPHjx7uXXnrJzHQfhRmTSCAkQbBxVatWzR100EEWx+I0TJo2nSlr1qzpDjjgAHO3UCDHZlfamOt/4UmW9YJbq0mTJu7SSy81bS2IBA06ubVyTyZeEQh1EsiiN2vWzGIhaVtobD74e6+//nq3YsWKX9qD+rQwfCYQUq9p00ocDiuYtHKIA8n+Dh06mDQ5KgNXX321u/XWW93IkSOtJ/h5551nqaennHKKjR+EwnN5DRInICBIxVfF6biuw913390dc8wxNhYoWlBrhTxS0mutck8TJb+iVwTCRokkOidxTnZxnbj5ui82GTYvLDA2I1KbSWP0qce0zwSCJXjYYYe57t27Wwrpgw8+aNmBJDqsWbPGmiORgk28Ch/8hx9+aJXT/I3GSa+88oolRaDvRGtX0lDPPfdcIxWSJ4h75WvupPF1wZP1giTKmWee6W6//XYLspOU49Ohq+TtO/r/eEUgwPXll19arQQnPSaI7zLvYRZ24NZCufTCCy+09qCrV682ba24u7V8IpDf/OY31s+7evXqVuzZs2dPd9NNNzliceCNIGZ5O+lx+sWSJjWd15g9e7ZtbH369DE5cw5GnJwZY1kk4V1ZxdcVFh9JKUiiTJs2zQgdt5auiiHgHYGQzsrAjx071mIDaTy1sbGwufHZcYMcddRRVoSIrlbcC6p8IhAsPrJ7OL3S7Oi9994zaw8CQOizIqdYnstr4FIhTXvz5s32HoMGDbL2BSRQiEByRyAcNEn7xdIjKWXEiBFG4BXbPvVs7wiEExwLDzdAmzZtzAdd/LSRpt8hESQejjzySMtQIxd+2bJldjKOY8qvLwTCiZVYG26m+fPnWx1SvjLgmNNYjtQ6LV++3NxbAwYMsLRUAsJpms/5/qwcClgvxEaw3klKwcWIG1ixkfIToncEEnxEMrLuvvtuW2Qy938+qRGMPfbYY90111xjGxF+eCySipyUA7xz9d0XAkFz6eKLL3Zr164t6MbCJoZVQuYQigSnnnqqq1q1qttxxx2VvbVD7iwSiArrslGjRpbsQBwLKzBfh4RcrZ+4vY63BEJRHS4FMlwwSzlZ5Pv0EvfXx0wnU4uUUU5YBNkXLlxoulpxmXi+EAj1N3SQxJpjQy/kBeGjhYZFQlEc/cJRJyCIH/c56NP9Yb0H6wWiHj16tFkjhRxr39/LWwLBPUMAk54aFA5xQvNp8ubzXiFTeikEQfZJkyZZ7QgJCFEH2X0hEDYWrBCUAJ5//nkLfEdhyRHvI7aFrA2HJVyVaEDlc/6k8bWxRnBZMt6PP/64ZdJxSNVVOgLeEkjwsegNcNttt1lefRozsspa7Jxa2XTIPsG/TvYPJBKVv9cXAgFXTqgHHnigdcQk4ypq9wZEAn7169c3lQJctyRTlDUH9P/sXV/0ZUcZe+LEiZaCTcJEFAeHYH+L+3fvCQQfP24alHrpOa7Fsv1iYZPhxEoXRCw1NiCCwtu2bYtEoNEnAmFzxrLFkoOAqeOI8vr666+ttcHMmTMd2Vq4tdIg61PINY3ljlw8hy5iYFgjuBJ1ZUbAewLhY3300UeO7KPmzZtb/rxOZduTSLAAIRMWxkUXXeQefvhhq+r/7LPPLKst8/TI/V99IpAAN4rRcGfhIyfuFqUbEMuRQxNyNsRGOnbsaMWN3KPigJnnfTCO5f2OLE2PHj3cAw884PB0EJeSNbL9npAIAmFBI1NA9hG+ay2kzAuJugJIBLcWQWKI5KmnnjJrZPtpkb/ffCQQDiTMKQ4oo0aNsnaq+UOo7FeGREhlZ0Mje4jixrp165okSnk3ST0+81oBlyCWiKV3xRVXuA8++EBtdItNz0QQCAsKEmEzPP/8821z1MIoeWEERVWHHHKIaTixAeEGxK2V79O1jwQSzCVqQ/CPI+hJem8crq1bt1pBHLIql112mQk4qnak5LkfjGV5vuMCJu7Ur18/N2fOHLdly5a8r5M4zK1s7iERBBJ8UAKdTz75pDvxxBOV8phlzjy1IxAJ+mIUZ9Jn+quvvrITbj4C7VQAs8H5+oUrq2vXrraRYAXkA6NgPmf7nXsgI5EYzZ///GeLB6IMXKlSpdSoVpeHEMI8lip2MrVwaaFKQI0VFmDar0QRCKfnjRs32iJq2rSpAupZkAjWCCRC9gluEE5Zs2bNcsRG8mGNsPioAPb1i8AqAXVOooG6axw2kaB2hEMUaceoASPZQY1UmA1Tz9neisGNSVYerl9cmcRcEdBM+5UoAmEwOYkh+U4RHVlZaAppMWy/GErCg/gIarOdO3c2EsYioTd7LgvpUFNGQdj3L+QvCGZjhcTtwhVJJTt6cbh0IRIJNGa3BkpaG8HfWSOQcosWLYykA4s9bnOgUPeTOAIJgCNVlaYy8geXf+HQ8wLyxUqARKRaGswq/76TrUXcCZVfCTSWfy0ExJHpO03DyNCCRNJ6JZZAODnjimnfvr3ldWN+ZpoE+tuvFxVuLTYb+igg8UADK1xPEAmFVbr8QYAgO9bIo48+auOIpDnJAJr3v5735cWEmAgkgrdj0aJFsVfCzsesTSyBIPuOwuaYMWNsE8SEV6V6+RcN1ghurQsuuMA99thjFqglPgK+uvxAIAiy43ajVzi1IzQloxsiLpnybpx6/PbriELTK6+80i1evNjiYn7MitzcZWIJBHgILJIt8cgjj1jbUTZDTf7tJ39ZeBA8BDcqnmvVqmW1IzNmzLAeFrmZgnqVQiAAiWA9kmFH7Qjd+egjA4mUNQf0/9LXDNXrNB1Dq4xmY2m6Ek0gDCT6Re+++64FvBBLYzOUJVL6gsi0YYAZ2JHyi1sQqfF58+ZZkD1qjag0LdhcfFZIhMpq/PekbyNpThYebl41sSr/2mC9QCK4fLFEggSLXIxV3F8j8QTCAHDywhIZPny4q1mzplWrc7LWYgm3WMiJRy/orLPOMrcWQUQyf+JSFxH3RRen+yM+ghjpKaec4qgdQftLbq1w6wIigYxJ8aXQNJfZi3GaM0XvJRUEgiuL9F7ytqkipukSJwYRSLiFAvlCIpxa0daiV/j9998va6ToyvLkZ9rpItHx7LPPGpFgpSvIHm5dQCBUrVNPRUEn5Jz0WGEqCCRYy+j7r1u3zkToGjdubKctubPCLxYWDHpB+H9PP/106zNN+jTWXlyztThIoK5KR0sOFL5+UU/D5p+LYk/iI6yN1157zfrrkL5NIS5Eorhh+dcHhyvUMEaOHOk+/PDDyNsABPtfPr6nikAAkEZUGzZssHa41Dow2GyE+qoYBrg9EGns1KmTKf2SPhrHi34opCTTDnnw4MHeftGvgsMQrsNcX5ATGXcnnXSSKtkrsDeQ4stcS7IcfOoIhNMW6b2Yl2Si0CNDUtgVIw/IN5B6oJ0uUg8I+02ZMsXkz8E7LhcBZIrrCHZSoV2vXj0rsqPQzqev7t27uyVLljikS3J9YY3QIgGBTeIjWJdIm2ONMM46bGW3XnDx0qdo2rRpRvQcXpN2pY5AggFECA1LhLx4SITBljWS3cIoawMBx/3339+1a9fOTvrkxweSKFH3UwjGfdiwYRa/IY3VRzdmcLrFRZLPC2uEbC3qgCBc1gnaaWXNAf3/Z/cuSQl9+vQxssflmLQrtQSCJULWECc4ZOBbtWol2ZMKmOtFNwxOqbi06M0CkeDWwmWE0GXUsZFg3N98803z99euXdtLP3+hCIQYC24yMu2mTp3qzjzzTIt5FR1v/Zz54EWSDmuBos3evXtbbFAEkjAEyJLAL47UAycF3BhkUmhRZF4U5cWF033g1sJtRCdE3IdRn8Zw06xevdoNGDDA3Fjl/VxRP75QBBIsd2p9sNgplMN6g0hq1Kghfa0sDl0cpLDe6NlC8kaSrtRaIJkGET0buvQFp1I2P6X65oZIyNZiIWHpYY1Q3EmePH5hrIIoLk7WWJ9UEOOW4R6jJoZs37/QBFJ0fHBHQiQUlJKBh26aT9hli3EuH4duFnGr6dOnRzrni45jLn4WgRRBMRCeoxCoQ4cO5tKSCGNuCCRwa1GAiIQGqaKTJk2yU21UQXZcmOh6zZ492/Xq1csr10yUBII1gut3+fLlbsKECe6cc86xKuxcbrhJey0SELDEqfzHkotqzhfZ7nLyowgkA4xvv/22e+ihh9y5557r6IeMS0vVubkhEjYGSJnF1LZtW0tiQDKe2hFqNKIIspNmiSwL7WqxknwIqkdJIEWXzObNm93MmTMt644qbGJeBI6TRgC5+jwUMVN0S3JCEi4RSIZRxK1CsyD8lXR2o9qaGodcTaK0vw5uQTZpTmW0XYVIUAiIKsgOaX399ddu0KBBJhjpQ/FcXAgE7EiMYOxwB5IwceCBB2qtlBAbQZT0mGOOMawybD3e/UkEUsKQQSKYmVQqk8aI/xKJAiRQ5O/NnTUCmVatWtXRp4L4E6czgtv5KJArPtSMMcF8XDFUDXMPdJvzYXzjQiABppAI1gjWJH3vcWvRP54DgmpH/rleOJzQWgIxUg6ouVASCMYgiu8ikCxQJ2OHoCEZO/jv6YsMkfjg6vDF2mHTxvVB9fMtt9ziXnjhBavgBftcto0N0ni//PJLq+QmcYKGQBwOKCj1Ba+4EUjRZYRLkJbF+PsbNmxokihqLf1PEmGOUSM1efJks3yjSiIpOmZhfxaBZIEcJ1UqmImNcMKiqArpZhVUbb8oKrL5Bm4tNnEye1q3bu1uuukm613x+eefZzFK2T2EzC8C5/Q06devn7kTOBBAXj5YHgHGcSYQTtW4BKkdIT2+b9++ltkY3Lu+72Ck2rVrV1Nq8NkKEYFkt+/YoxhoiARf79ChQy1Ti/4YVF7LGskdmYAl2VoEHMmOIg5F/ciCBQtM8I8MICyT0pRO+R8uSGp82MhoojRnzhx37733Wo9w6hhwsfh6Mo4zgQRLivWCNYIkClYl8v+kyKvO6udEErwZyJzkW00gGI98fBeBhESVUzFEgt+eEyxBdjK1VDeSOyIJTqpYJbTV7dy5s/V0AXea9kAknHRJeCj+FRAHFuPYsWPN/YhCKvGWJJC9DwRSdGkR0yKe2L9/f1e/fn0jbrLxiI+kdc0wF9k/kNL39RKBhBw5goa4QlauXGmnYyYC2VpK9809gbDRQNAsOE6wpIu2aNHChOoQ+sv0hYgdGmfHH3+8VZrjcqSYC4sjCRuWbwRCHAsSQTKeU/dVV11lFiaHgyQQenDYKc93Egw4GFFYG1UKe8jt75eniUB+gSLcD7hKWBj0wRgyZIhtWn/605+k8FtCGmN5FpgeWzIZ+0YgRVfXF1984VasWGGuSYLJderUSaVsPMRJHBXlapp6+dgaWgRSdGaH/JksCvy9uE1ICR04cKBl9aigquQNUORQMWx8JpCimXAQCckSfJ60zQksYb4gUeJzuUwWCbmVlftpIpByQ1byEyAR0kPpN0HDHxQ4CZSpdqRim2XaNpZsPq/PBBKsIKx31gvimtT/IGZK2i+uxjS5tUjmIOWZLE/fLhFInkaMoC7ZJ5dffrll+9AeFItERVUik2wIoqzHJIFAii49dOiw3lEDoN00WXi4d9IQZA/Ueumbk8uap6L45utnEUiekA1OV2vXrrX4CGm/FMnJrSUCKYscsvl/0ggE651YIm16EbekuJM0bkgk6dYI9Udow2GFoXTs0yUCyfNoQSQEx1atWmU1CN26dXMNGjQwOQMp/YpMsiGLTI9JGoEUXYbEAnAD03L67LPPtmJPLPhMOCTlb0joXHHFFQ4rxKdLBFLA0aIKmsKqUaNGWYMZ2qkmZQHocxSWDJNMIMGSJLX1vffeszRXrPckzzE8E3zG++67L/j4XnwXgRRwmJBEwRohWIaZTtrvqaeeaimMPijAJnkB+/bZ0kAgrBcUBxAdnDVrlrv22mutrgcxwqTFEvFGIOGD686nSwQS0WhRiEg19fjx462zG9W5e+65p/XK8G0z0/0W1voA7zQQSNGlSVIKfeyHDx/u2rRpY+10CT4nZe5BiGRr0oOIAmWsLx8uEUhEo0QuPCRC9gkWCXIbtAjldJWURaHPkT9iSRuBBH1HSPslThDUWiVljlEPAonQUgChz48++iiinal8bysCKR9eOX80ZjqxEU5Xjz32mBs8eLBJdNDZTWq/+duAfd940kYgRRcelexLly41awQZG9ZKUiSEDj/8cHNtI/niwyUCidEoYZGQgfLII4+YNYLSL1pBgeic75ue7j93hJhmAgmWLKd05OIhkb333jsRNSOk86IUTT8cHy4RSIxGCTM9kER5+eWX3YQJE9x5551nIoK+yo6LNHJHGkWxFIE4ixNQN/HEE0+Y6gOZTL5bIsR1atSoYX3mY7Q1lXgrIpASoYn2H7i21q9fbxo5VLOT4keWhrK18rMhF92cffhZBPLz+qRyG6udLC36sR900EFet1WgqBDX9ZgxY0zmhTqyOF8ikDiPjnMmbUAGChLY9MNQkF0EAsGJQLZfuDR6o98IJJIEySAkXfBC0BQtzpcIJM6j45wLlEvpWkbjmTvuuMOIpGbNmtYjw4fTsu4x96QnAtl+4eL6hUQmTZrkOnbs6P3aIJ2XbCyyzuJ8iUDiPDrF7o0gO4HDqVOnOiRRUC6ldoSWukkrrBLplE46IpBii+P/f6Xo8K677nL05KGuwtd5hMsaKRe6bsb5EoHEeXSK3VtQO0IaI7UjkydPdueff77bd999jUR8XSy679LJIhM+IpBii+P/f6UAjx4jPXr0cHShzISdD38jnbdv375uw4YNmT9oTP4qAonJQJT3NgiyM7nIQEH+4IwzznCk/dIm04cFonssP2kUxUwEUvKKoZIb9w+Nmny1zhGP5P7ffffdkj9oDP4jAonBIFTkFgK9oCeffNJdfPHFZrqTxUE2h9xaFduki27YcftZBFLyqgnWxLBhw7xVvWYNM8avv/56yR80Bv8RgcRgECpyC7i1SPXj1IVk/IMPPuguuugia2JFEWLcNj7dT25ITQRS8qoJ1gTKDm3btrU4oW/zjgMgbqznn3/easNK/rTR/kcEEi3+OX33gEgWLFhgyqWtW7c2PzBFiElvyuPbBlHR+xWBlL10aJWL+CIB9YriHcXzuW/qW77//vuyP2xEjxCBRAR8vt42qGZn0j3zzDPWUrdatWpeZ6REsXjj/p4ikLJXECmwixYtckcddZSXBEJR5MSJE93XX39d9oeN6BEikIiAL8TbkgK4bNkyd88997h+/fq5Zs2auT322MPLxRT3Db3Q9ycCKXsFkfZOi9xzzjnH7bffft5Z4VWrVnU333yz+/TTT8v+sBE9QgQSEfCFelsCilgjVLWOHj3aGlgh2Ibmjlrq5iYeUWjy4P1EINmtIFLeb7rpJmuL69t8JxOrf//+jiLiuF4ikLiOTA7vC7cWkgibN292L774ohs5cqRr1KiRrJEdRCA5nGaxfClkgKiXIs3dt8LCvfbayxJiPvjgg1hiy02JQGI7NLm/MbJTIJKgEyJpv02bNjUpbIk0+kUmskCyWx+0kEYavU+fPs43ResqVaq4rl27xroWRASS3TxM5KPeeustk4xHNoGmPJAI6YN0R+MrCtdMmt8TzMGfkzKCgGx4JcmTi0CyW5Ko9VJwS02Iby1wd9llF2sux4EvrpcIJK4jU4D7+uabb2xxLVmyxEQaqXwNNIRUhFh4iwTCoBcEPWBQFyDxgVqATKQqAslugWB1EwOkZfROO+2UEctM+MbhbxAeruZXXnkluw8bwaNEIBGAHse3xBoZP368u+CCC0ykEYuEU3AcFlKS74H6HIiDLCFIoVevXtZlDz0n0rDJINptt91+ZYmIQMq3ioiDIDyKhefLfGL91a9f3wqEy/dpC/doEUjhsI71O5HyiBw2RDJ9+nQTo6tVq5Y3i82XTaH4feKuQvQP8T/as5KyiWWIKCAnZ0j9xBNPdJUrV95uLEQg5VtOYOubVpwIpHxjrEdHjADmPkFHJOPnz5/vbr31VmvQgxuFU3DxzU+/h3dz4U7BXXj22WdbtfTTTz+dMV2Tamqy5o444ojtfPgikPItlscff9zcQT41ZBOBlG+M9eiYIbBp0yaHLAotdRs3bmwkgsgbbhcF2ctPHsSVUIfdddddXYMGDcxdiAjm1q1bHfU6mS4sQwT1cC0efPDBJpAJ9iKQTGiV/DcORKeeeqq1PvDl4CMCKXk89R8PEPjxxx+tIxqS0rNnz3a02WTjIjtE2lrlJxA2BNxVFIfhJnzzzTeNPOimh/WX6aKGBymLxYsXWyoqr4EfXwSSCa2S/yYCKRmbivxHMZCKoJei537++edu6dKl1iWNdptHH320pf5S3auMrcxkgqVAGi5uE1xQHTp0cEOHDjWF1fLIU2CdbNu2zU2bNs3SOvfee28RSDnX3lNPPeVatmxpNU+yQMoJXikPF4GUAo7+9WsEiJGsXbvW/PJt2rSx1MiSahV8Waj5uk8IhAwryJZ40ksvvfRrQMvxF1yKNBDD+pAFUg7gnHOKgZQPr2wfLQLJFik9zhAITsNka5FmSn49gWAytnxKkcwXaWCNkVlFvAKLgwI2JLkpBiPWUZEL8t64caO5v3CB8TPKArrKRuCRRx5xaMD5pLigGEjZ46pHeIwAVb6k/pIiSdEbRU81a9bMWLeQrw07Dq9LPIiNCekJMquQh6Gf9ZQpU0wNllhSri5iJbiz+CopbpKr90rC64ARMaYJEyb8KhU6DnOntHsQgSRhBuozlIoAFgl1CyiGLl++3JRPM9UtlLZQfP8fFgfKqa1atXI33HCDBbxJhUbIr7QAeanAlvJPAut86SobAeYnlt/tt9/uXSW6CKTs8dUjEoIA1ggbJrILDz/8sHVE7Ny5s1klBH0Jticp9Ze6mNq1a7uTTz7Z9e7d240YMcLNmDHDqoaxyugOqSt6BEiDxt2KNEylSpW8qmWiVghrllqguF6KgcR1ZDy+L8iErC36Od92222WOYRrB3lqKqo5sfuUBkxsh/oXeszTkAvZkRNOOMFddtll1oN+zZo1BScMCOrbb7+1NOstW7ZYLATcdW2PAHEjuhJC8iQ0+GTtUi+EDD3p3nG9RCBxHRmP7wu/M35/NjZOf8hpT5061Q0ZMsQq2+vWrbtdVXXcFzVpuLRFPeuss8yyuv/++x2V46tXr3br16+3Oo1CxyM+++wzu4c777zTTtcLFy60fi8eT5u83HrQDwShUA4ucZ9rRe+PmFq3bt0sjpYXcHLwoiKQHIColygbAU7LnNSpZYBIEAkkL5+NGY0ixBspUIwqSyZIuWXRkq1z2GGHWRe7Fi1amDruLbfcYtlPdHaksC+K0z5xD1wyNBh67LHH7FSNJYQrjX4XkyZNshRreoHj+9flLP5B7Q3zzLeOhLh+L730UlPMjutYikDiOjIJuy9O6Lhd2AARCSTwTj0JmUoQCqnARx55ZGRdEnGp0YO6SZMmvxAGmzTpt1hSuEK4dz5Doa2NYCoQkOde7r77bpPlwEfOpkgdDi428LvqqqvcsmXLDOOo7jO43zh8pwtnly5dTInXJ7cplgiHKtYGnyGulwgkriOTgvvCKuE0zakezS2sE+pK6GGN/lb37t3dKaec4po1a2bWALUm9MuoXr26WSvoSpVWBc//kfCuVq2aPY/nIgyJVYFvmW5v+MavvfZa6xePa4qajeeee86sJTKpILqoA+JYO2QSgdH1119v908cpviGiM8c9yBkTOEiMag4bz75nuLE4cAMHTfcV74lcRx44IFu1KhRFk/MN1ZhX18EEhY5PS8vCHDKxm+N/hZ+ffL3R48ebQV5tODt2bOnWQhkPzVs2NDVq1fPSAFiKP51zDHHGFHgLuN5fEFMnOCJySBvQXU4BXlxvbDWSJEm5oKG1kEHHVRmNhGbJW7BAQMGmIYZzw9SiuP6OfNxX8SocD2iP1Y0tuDLz9RU0ceEsYvrJQKJ68ik9L5wu+C/px8GCweXDbpRyHgQsMZief/99y04j3vptddeK/GL/0NE7733nj2P57KZEoD+4osvrBgPKwjSiutFWvQdd9xh6cKcSLPJYMMqw6VFbQppoBAJZPzJJ5+kqn6EAldqc4hr+UIaRe/z0EMPtXHDdRrXSwQS15HRfaUSAQgU8oTs5syZYzGN5s2bW2woTBCYxIQ6deqYO5C+Is8++6z1e8EtltQYCRsuhwRkZHBf+pZ9BYlwz1jQuHfjXDQqAknlNqUPHUcEiLWgbYWlheuCWA1WRNFTaUV+JruMzoczZ840q47EgCRma1HISeo4wfOK4BXlc6k3at26tXv77bfjOFV/uScRyC9Q6AchEA0CnDCxOqg4JuZz/vnnW9opCQC5PD1TSAeJkGl20UUXmYYZ7r2kXe+8844VeWJ5RUkCFXlv4nnoqW3YsCHWwyMCifXw6OaSjgCnZSqN586da71CTjvttLx3zSM7jRRRpGZIjsN5TwAAEhtJREFUUFiyZIltVMSDfHdrkXVGggQS+igHVGQTj/K5WJ/Dhw+PfRadCCTpO5Q+X6wRIAsMXz2nZdJw2dyLp+fmeiMjnZX3wLrBImGzGj9+vLlLfHdpUbuD64rYT2kp3rnGNNev16lTJ/fQQw9VuAVAvie/CCTfCOv1hUARBMj4wsVCi2CUe6lFoT86RYFR9FMhWwuNskCCPqhmJxAd5+BtEUjtR7LqVq5caa45Up0h4lxv6oV8vSuvvNI+T9z7vYhAis9E/S4EcohAEN+gqI0UYrJq7rnnHnMfIVXBBl7Ijam094JIKNxEX2vVqlXu448/NsHGHMKR85fCYsL19uKLLxohU0hZ2meM+/+wDMm2YwwoHo26iLWsAROBlIWQ/i8EKoAAopLr1q0zyRYq3qmAr1+/vsU50P3Kt7uqPBsm90P2T9C//a677jLCq8DHz/tTIQ8sD6w5FJ+x5MrzmeP2WNyKJE/QEgFrNe4xKRFI3qe43iBNCFBfQQ0CRYwU7+HHRs+offv2VjWPbz7uPeQ5AdPvhNgIfTTmz59vJMhmHSe3FgFzMB48eLDJlcSNDMLcD+Rx/PHHm/KAD+tGBOLDKOkevUGA6nn6T9x8881WBY1bKMxGEpfnsKGR9kuQHQWAOFXtI+9y4YUXWrFgXPCq6H2g94YCLy5EHy4RiA+jpHuMJQJsphT9QRgPPPCAWRoU6hFHwA2E4GGcYhxhNrfApUJV9AUXXGAFjiQBRHHhzsEKQt6FFrUdO3Y0nStav4b5bHF8DskMZJIh5OnDJQLxYZR0j5EiEFSIEwhnYVMdzCaGLMi4ceOsaO3UU0+1zQzCiFNcI5ebJNYIrjgUk9Egw1WH2GO+/fQEyrdt22byLs8884zFO6jzoNFXLj9flK9FajWuQ9J3sfQgSh8uEYgPo6R7jBQB3FJ0Vnz88cdNXvuSSy4xKyNohEX9Bv22SR2l9sA32fBsN07SjP/whz9Ysy0k45HfJ0Egn7UjxFwgKeplkKjHnYY4IkQdRdpztliV93F8FgixX79+5iaMU6yptMUnAikNHf0vFQhQ80CXQYKyEMXSpUtNyHDixInmKiF7Cl87p282MFRSOY0XouivvBtRIR6Py4gCRLSaaGA1Y8YMy9ZC7TcXMRIIG4mVxYsXW/YaGVbnnnuuO+644yy4X4jPWOj3QGaG7pKkePt0iUB8Gi3da4UQYHPDNUDLV9xRgUw8UiLIeaB+i3tm4MCBRhbEMQiC51KPqtAbU77fD7HHNm3auBtvvNHNmzfP5PNxbYExzbgQbCSVuaQv/g9hIOnCmEDiWBs090KG/sQTT3SVK1dOjKuqpPEg6+2KK64w0qzQJC/wk0UgBQZcbxcNArhZiF2gOTVixAh3zTXXWDfCdu3aWcdDfOoQBm4p+m5gYVBTkFYro6SNrvjfg9oRmh+BYdu2bR0uvj//+c/WQ56uiIhErlmzJuMX1h5tjQmKU31NDAArjz7vWDlsrHFPey6OSZjfIWJSvjnU+HSJQHwaLd1raAQgEPz106dPtw2OHhu0xuV0G6bPRphNIunPwY+PgCFkQhtZyADVXyy6QYMGZfxCcbZDhw4mpXLYYYcZYUDaSY0jZZoD1AaBFy67XLgAQy+SEE8UgYQATU/xDwEyhQjGrlixwjYy3yUvMm1E+tsOXrq6kG6n1TLdM327RCC+jZjuNzQCpOMiukev7Pvuu8/6btAvO0l1BCIR/0gES23BggUWNwo9uSN6oggkIuD1ttEiQLAWiY4+ffq4Ro0aWX8M34v+RB5+kQeuU1J3kbpBONE39xUrWAQS7T6md48IARYr1sjrr79uGT/du3e3oK02Yb82YZ/HiwQBsswQTvS1R70IJKINTG8bPQLERagBofKXIkGEA6kop58EBXM+b0669/gTIfMMIUjicr5eIhBfR073nVMEIBMsEmoZKFqjWDCodk5TRpCIpzDEQ8Zaw4YNHdIs1L/4eolAfB053XfOEcCtRR4+SqgUshEfIchOWqk21sJsrGnBGdVdUpixfrGCfb1EIL6OnO47rwgQZCczhmroZs2aWc2I3FoikYoSHFppFEaiJDx16lSr1s/rRM7zi4tA8gywXt5PBBCzQ35jy5Yt7sknn7SqdTreVXQD0fPTTUJkXqFwMHLkSLdx48bYt6wta/WKQMpCSP9PNQJkx2CNUCU8evRoR7ZWnTp1HNXDIoN0k0GY8d9///1NO4xDCTpg+ZbCz/fiFYHkG2G9fmIQQCSQFqq4tdBrQi8LFVX6fyjQLjIpjVBwXaEbhmQJirs+Vp1nWsgikEyo6G9CIAMCWCMox3744YfWCwOJd0T/UOsVgYhASiMQyKNatWrW74ODyA8//JBhhvn3JxGIf2OmO44BAnQmpCc3qrNdunQxtxaNpUrbRPS/9JLMHnvs4bp16+YeffTRGMze3N2CCCR3WOqVUoYA/mv82PSvwK3VoEEDc2mRZYPLQoSRXsIoOvbMByzVmTNnuk2bNiVqlYhAEjWc+jCFRgCZeJohIYmCJMVll13m6tev72SNiDwCEqlXr56p7dK4LCmuq2CdiUACJPRdCFQQAXzbZGsNGzbMGivRF4N+I1QdK0aSPkKhAJWDRK9evUy4c9u2bRWcYfF7uggkfmOiO/IUAeTi6TmCNAXaWjRTokkSkigikPQRCKneRx55pHvggQeslTLWatIuEUjSRlSfJxYI4Osm5ZdWrWhrBd32AreGvieXUDgskN597LHHulGjRrk33ngjFnMyHzchAskHqnpNIeCcFYl9+eWX7tlnnzXdI2oAqlSpYmm/1I6IRJJHIpAH1ea4L4mHoa3mY5+PbBewCCRbpPQ4IRACAWpHIJG3337b3FpDhw61bC3kLEQgySMQyINDAi1qn3/+eQua+15tXtq0F4GUho7+JwRyiABy8S+//LLpIHXu3NnRC1uSKMkiEdSbkbuhRojxTjJ5sDREIDncIPRSQiBbBNasWWPNhCARWSLJIREOBsQ8UCxIwyUCScMo6zPGDgFqRyCRKVOmWBEi2Tq0OBWZ+EkmpOu2bdvWPfjgg450XVyXabhEIGkYZX3G2CLASZUGVrQ2bd26tUMyHiLBl67U33iTCWoD1Pjstdde1jNm4sSJ7p133ontXMvHjYlA8oGqXlMIZIlA0Hdk69atVoQ4fPhw17x5cyMRyaHEm0AgeZqMdejQwWo90EdLcsZVpiktAsmEiv4mBCJAgKDrq6++6iZNmmQpoBDJvvvuK7fWDvEikiBVl74wl156qXUWRJ49aTIl2SwBEUg2KOkxQqBACJC1w0a0du1aN3bsWGs+hItkxx13tFaoipFESybU71AkiDR779693VtvvWVaaAWaHrF7GxFI7IZEN5R2BHBrfffdd+7jjz92L7zwgnVCbNmypdtnn31kjURsjZB2jVgm9TzUeTBOaQmYZ1qXIpBMqOhvQiAmCKCttW7dOjdhwgQ78VLNvt9++6mJVYGJhIZQEHirVq3cTTfdZBL+ZNKl/RKBpH0G6PPHGgFcWojw0XcEyfj77rvPnXTSSW733XdXz5ECkghpuieccIIbN26cCzoKJr1IMJuFIQLJBiU9RgjEAAFSfgnWzpgxw1133XXutNNOczVq1JBbK89EcsQRR5j198gjj5gkDZlWIo+fF4QIJAYbg25BCJQHgR9//NE2MuoOkM1APgP9JWTjFWSveJCd9Gl6eWDlge2VV15pysq4E3Vtj4AIZHs89JsQiD0CBNnJ1KLvCNXsnIyRjD/44INFIDmwRoh37L///q5Tp05u+vTpv0iTgLuu7REQgWyPh34TAl4hAJHQe2Tu3LnuhhtucO3bt3d169a10zNV0rJIsrNISM/F6sDiwDU4aNAg62G+efNmiz95NSkKeLMikAKCrbcSAvlEAItk6dKl7qqrrnLHHXectVOlWhqXjGRRMhMJuPz2t7+1inKy28477zz36KOPuk8++SSfQ5WY1xaBJGYo9UHSjsDf/vY3kxCnCHHWrFlGJGQOBdpaskZ+TSKQR+3atV2PHj3c5MmT3fLly82iI86kq2wERCBlY6RHCAHvEEARls3wzjvvdN26dXPUjxAjCToipplMsMqo7kdKn7qOq6++2lyAX3/9taOvva7sERCBZI+VHikEvEGANFMqpImR0FZ15syZtlFikaS9on3nnXd2p5xyirvjjjvcm2++6RCyxHpTam75p7cIpPyY6RlCwCsEIBKUYleuXOlmz57tbr31VvP1N23a1FWtWjXRgfYgJZesKuJCuKpuu+02w4HGT99++62sjgrMZhFIBcDTU4WAjwhs3LjRPffcc9Za9+yzzzbXFuKAuLcQCvQ9e4v7R2Z9jz32cAceeKD1oKdT4M033+wWLVpkFodcVbmZuSKQ3OCoVxEC3iBAJTVV7WQaIR//+OOP26m8a9eu7tBDD/W+TzsuqoYNG5qVNWLECCMN9MRIyeVzQx5yV+VmuopAcoOjXkUIeIlAkLlFQeKcOXPc7bff7i6//HJ3zjnnmOZWvXr1rCcJlkncAu9YGpUqVbL7IyDeokUL16VLF6scv+eee9y8efPca6+9Zm4qLwfHg5sWgXgwSLpFIVBIBFCZpc8Faa39+/d3TZo0cXvuuWfsCOT3v/+9kQf317dvX+sKiOAkEuuqGi/MjBGBFAZnvYsQ8AaBwMW1fv1669c+f/58k/SgwRUijj179rRqbYLwDRo0cLVq1cqL24t028qVK7vq1avb+6BCTCzjkksucUOGDLGGWxT9cX8kCLz//vtOqbiFnWYikMLirXcTAt4iQEowpLJs2TIrVHzooYccriL6uA8YMMCEHRF3zNVXr169rLXvsGHDjCzQpVq4cKFbvXq1ZZWRQaUrWgREINHir3cXAkJACHiLgAjE26HTjQsBISAEokVABBIt/np3ISAEhIC3CIhAvB063bgQEAJCIFoERCDR4q93FwJCQAh4i4AIxNuh040LASEgBKJFQAQSLf56dyEgBISAtwiIQLwdOt24EBACQiBaBEQg0eKvdxcCQkAIeIuACMTbodONCwEhIASiRUAEEi3+enchIASEgLcIiEC8HTrduBAQAkIgWgREINHir3cXAkJACHiLgAjE26HTjQsBISAEokVABBIt/np3ISAEhIC3CIhAvB063bgQEAJCIFoERCDR4q93FwJCQAh4i4AIxNuh040LASEgBKJFQAQSLf56dyEgBISAtwiIQLwdOt24EBACQiBaBEQg0eKvdxcCQkAIeIuACMTbodONCwEhIASiRUAEEi3+enchIASEgLcIiEC8HTrduBAQAkIgWgREINHir3cXAkJACHiLgAjE26HTjQsBISAEokVABBIt/np3ISAEhIC3CIhAvB063bgQEAJCIFoERCDR4q93FwJCQAh4i4AIxNuh040LASEgBKJFQAQSLf56dyEgBISAtwiIQLwdOt24EBACQiBaBEQg0eKvdxcCQkAIeIuACMTbodONCwEhIASiRUAEEi3+enchIASEgLcIiEC8HTrduBAQAkIgWgREINHir3cXAkJACHiLgAjE26HTjQsBISAEokVABBIt/np3ISAEhIC3CIhAvB063bgQEAJCIFoERCDR4q93FwJCQAh4i4AIxNuh040LASEgBKJFQAQSLf56dyEgBISAtwiIQLwdOt24EBACQiBaBEQg0eKvdxcCQkAIeIuACMTbodONCwEhIASiRUAEEi3+enchIASEgLcIiEC8HTrduBAQAkIgWgREINHir3cXAkJACHiLgAjE26HTjQsBISAEokVABBIt/np3ISAEhIC3CIhAvB063bgQEAJCIFoERCDR4q93FwJCQAh4i4AIxNuh040LASEgBKJFQAQSLf56dyEgBISAtwiIQLwdOt24EBACQiBaBEQg0eKvdxcCQkAIeIuACMTbodONCwEhIASiRUAEEi3+enchIASEgLcIiEC8HTrduBAQAkIgWgREINHir3cXAkJACHiLgAjE26HTjQsBISAEokVABBIt/np3ISAEhIC3CIhAvB063bgQEAJCIFoERCDR4q93FwJCQAh4i4AIxNuh040LASEgBKJFQAQSLf56dyEgBISAtwiIQLwdOt24EBACQiBaBEQg0eKvdxcCQkAIeIuACMTbodONCwEhIASiRUAEEi3+enchIASEgLcI/B99vrTG3GiVhQAAAABJRU5ErkJggg==;" parent="1" vertex="1">
          <mxGeometry x="572.5" y="239.12999999999988" width="35" height="35" as="geometry" />
        </mxCell>
        <mxCell id="6JY8YTlF_zlxLqDkcj-Z-20" value="" style="shape=image;html=1;verticalAlign=top;verticalLabelPosition=bottom;labelBackgroundColor=#ffffff;imageAspect=0;aspect=fixed;image=https://cdn4.iconfinder.com/data/icons/logos-brands-5/24/jenkins-128.png;strokeWidth=3;" parent="1" vertex="1">
          <mxGeometry x="70" y="65" width="29" height="29" as="geometry" />
        </mxCell>
        <mxCell id="6JY8YTlF_zlxLqDkcj-Z-21" value="&amp;nbsp;Provider CI" style="rounded=1;whiteSpace=wrap;html=1;verticalAlign=top;align=left;" parent="1" vertex="1">
          <mxGeometry x="440" y="330" width="300" height="140" as="geometry" />
        </mxCell>
        <mxCell id="6JY8YTlF_zlxLqDkcj-Z-22" value="" style="edgeStyle=orthogonalEdgeStyle;rounded=0;orthogonalLoop=1;jettySize=auto;html=1;dashed=1;" parent="1" source="6JY8YTlF_zlxLqDkcj-Z-23" edge="1">
          <mxGeometry relative="1" as="geometry">
            <mxPoint x="730" y="420" as="targetPoint" />
          </mxGeometry>
        </mxCell>
        <mxCell id="6JY8YTlF_zlxLqDkcj-Z-31" style="edgeStyle=orthogonalEdgeStyle;rounded=0;orthogonalLoop=1;jettySize=auto;html=1;entryX=0.5;entryY=1;entryDx=0;entryDy=0;" parent="1" source="6JY8YTlF_zlxLqDkcj-Z-23" target="6JY8YTlF_zlxLqDkcj-Z-8" edge="1">
          <mxGeometry relative="1" as="geometry" />
        </mxCell>
        <mxCell id="6JY8YTlF_zlxLqDkcj-Z-23" value="Run contract tests&lt;br&gt;Tags: &lt;b&gt;main, dev, test, preprod, prod&lt;/b&gt;" style="rounded=1;whiteSpace=wrap;html=1;" parent="1" vertex="1">
          <mxGeometry x="530" y="390" width="120" height="60" as="geometry" />
        </mxCell>
        <mxCell id="6JY8YTlF_zlxLqDkcj-Z-28" value="" style="edgeStyle=orthogonalEdgeStyle;rounded=0;orthogonalLoop=1;jettySize=auto;html=1;dashed=1;" parent="1" target="6JY8YTlF_zlxLqDkcj-Z-23" edge="1">
          <mxGeometry relative="1" as="geometry">
            <mxPoint x="450" y="420" as="sourcePoint" />
          </mxGeometry>
        </mxCell>
        <mxCell id="6JY8YTlF_zlxLqDkcj-Z-29" value="" style="shape=image;html=1;verticalAlign=top;verticalLabelPosition=bottom;labelBackgroundColor=#ffffff;imageAspect=0;aspect=fixed;image=https://cdn4.iconfinder.com/data/icons/logos-brands-5/24/jenkins-128.png;strokeWidth=3;" parent="1" vertex="1">
          <mxGeometry x="460" y="360" width="29" height="29" as="geometry" />
        </mxCell>
        <mxCell id="6JY8YTlF_zlxLqDkcj-Z-34" value="" style="edgeStyle=orthogonalEdgeStyle;rounded=0;orthogonalLoop=1;jettySize=auto;html=1;" parent="1" source="6JY8YTlF_zlxLqDkcj-Z-32" target="6JY8YTlF_zlxLqDkcj-Z-33" edge="1">
          <mxGeometry relative="1" as="geometry" />
        </mxCell>
        <mxCell id="6JY8YTlF_zlxLqDkcj-Z-32" value="Check contract can be fulfilled in environment" style="rounded=1;whiteSpace=wrap;html=1;" parent="1" vertex="1">
          <mxGeometry x="130" y="620" width="120" height="60" as="geometry" />
        </mxCell>
        <mxCell id="6JY8YTlF_zlxLqDkcj-Z-36" value="" style="edgeStyle=orthogonalEdgeStyle;rounded=0;orthogonalLoop=1;jettySize=auto;html=1;" parent="1" source="6JY8YTlF_zlxLqDkcj-Z-33" target="6JY8YTlF_zlxLqDkcj-Z-35" edge="1">
          <mxGeometry relative="1" as="geometry" />
        </mxCell>
        <mxCell id="6JY8YTlF_zlxLqDkcj-Z-33" value="Deploy application" style="rounded=1;whiteSpace=wrap;html=1;" parent="1" vertex="1">
          <mxGeometry x="330" y="620" width="120" height="60" as="geometry" />
        </mxCell>
        <mxCell id="6JY8YTlF_zlxLqDkcj-Z-38" value="" style="edgeStyle=orthogonalEdgeStyle;rounded=0;orthogonalLoop=1;jettySize=auto;html=1;dashed=1;" parent="1" source="6JY8YTlF_zlxLqDkcj-Z-35" edge="1">
          <mxGeometry relative="1" as="geometry">
            <mxPoint x="730" y="650" as="targetPoint" />
          </mxGeometry>
        </mxCell>
        <mxCell id="6JY8YTlF_zlxLqDkcj-Z-47" style="edgeStyle=orthogonalEdgeStyle;rounded=0;orthogonalLoop=1;jettySize=auto;html=1;entryX=0.5;entryY=0;entryDx=0;entryDy=0;exitX=0.5;exitY=1;exitDx=0;exitDy=0;" parent="1" source="6JY8YTlF_zlxLqDkcj-Z-35" target="6JY8YTlF_zlxLqDkcj-Z-43" edge="1">
          <mxGeometry relative="1" as="geometry" />
        </mxCell>
        <mxCell id="6JY8YTlF_zlxLqDkcj-Z-35" value="Update contract tag" style="rounded=1;whiteSpace=wrap;html=1;" parent="1" vertex="1">
          <mxGeometry x="530" y="620" width="120" height="60" as="geometry" />
        </mxCell>
        <mxCell id="6JY8YTlF_zlxLqDkcj-Z-39" value="" style="edgeStyle=orthogonalEdgeStyle;rounded=0;orthogonalLoop=1;jettySize=auto;html=1;dashed=1;" parent="1" edge="1">
          <mxGeometry relative="1" as="geometry">
            <mxPoint x="50" y="649.5" as="sourcePoint" />
            <mxPoint x="130" y="649.5" as="targetPoint" />
          </mxGeometry>
        </mxCell>
        <mxCell id="6JY8YTlF_zlxLqDkcj-Z-41" value="" style="aspect=fixed;html=1;points=[];align=center;image;fontSize=12;image=img/lib/azure2/devops/Azure_DevOps.svg;" parent="1" vertex="1">
          <mxGeometry x="79.99999999999955" y="596" width="30" height="30" as="geometry" />
        </mxCell>
        <mxCell id="6JY8YTlF_zlxLqDkcj-Z-42" value="Shared &lt;br&gt;subscription" style="rounded=1;whiteSpace=wrap;html=1;verticalAlign=top;align=left;" parent="1" vertex="1">
          <mxGeometry x="270" y="760" width="200" height="90" as="geometry" />
        </mxCell>
        <mxCell id="6JY8YTlF_zlxLqDkcj-Z-43" value="Pact Broker" style="rounded=1;whiteSpace=wrap;html=1;verticalAlign=top;" parent="1" vertex="1">
          <mxGeometry x="340" y="780" width="120" height="60" as="geometry" />
        </mxCell>
        <mxCell id="6JY8YTlF_zlxLqDkcj-Z-44" value="" style="aspect=fixed;html=1;points=[];align=center;image;fontSize=12;image=img/lib/mscae/Key.svg;" parent="1" vertex="1">
          <mxGeometry x="290" y="799.1299999999999" width="13.49" height="21.75" as="geometry" />
        </mxCell>
        <mxCell id="6JY8YTlF_zlxLqDkcj-Z-45" value="" style="shape=image;verticalLabelPosition=bottom;labelBackgroundColor=#ffffff;verticalAlign=top;aspect=fixed;imageAspect=0;image=data:image/png,iVBORw0KGgoAAAANSUhEUgAAAZAAAAGQCAYAAACAvzbMAAAgAElEQVR4Ae2dC7hV477GnX3O3ufsc7TllruitLdQSiKkUgpRUikqSpFEUSjXitzaRaGkhKSUdJNLiugiFQm5hUKF5NJ22exjn7O/8/z+zrBXy1xrzTXWnHOMb4x3PM961m1exny/y/v9b+9/B6dLCAgBISAEhEAIBHYI8Rw9RQgIASEgBISAE4FoEggBISAEhEAoBEQgoWDTk4SAEBACQkAEojkgBISAEBACoRAQgYSCTU8SAkJACAgBEYjmgBAQAkJACIRCQAQSCjY9SQgIASEgBEQgmgNCQAgIASEQCgERSCjY9CQhIASEgBAQgWgOCAEhIASEQCgERCChYNOThIAQEAJCQASiOSAEhIAQEAKhEBCBhIJNTxICQkAICAERiOaAEBACQkAIhEJABBIKNj1JCAgBISAERCCaA0JACAgBIRAKARFIKNj0JCEgBISAEBCBaA4IASEgBIRAKAREIKFg05OEgBAQAkJABKI5IASEgBAQAqEQEIGEgk1PEgJCQAgIARGI5oAQEAJCQAiEQkAEEgo2PUkICAEhIAREIJoDQkAICAEhEAoBEUgo2PQkISAEhIAQEIFoDggBISAEhEAoBEQgoWDTk4SAEBACQkAEojkgBISAEBACoRAQgYSCTU8SAkJACAgBEYjmgBAQAkJACIRCQAQSCjY9SQgIASEgBEQgmgNCQAgIASEQCgERSCjY9CQhIASEgBAQgWgOCAEhIASEQCgERCChYNOThIAQEAJCQASiOSAEhIAQEAKhEBCBhIJNTxICQkAICAERiOaAEBACQkAIhEJABBIKNj1JCAgBISAERCCaA0JACAgBIRAKARFIKNj0JCEgBISAEBCBaA4IASEgBIRAKAREIKFg05OEgBAQAkJABKI5IASEgBAQAqEQEIGEgk1PEgJCQAgIARGI5oAQEAJCQAiEQkAEEgo2PUkICAEhIAREIJoDQkAICAEhEAoBEUgo2PQkISAEhIAQEIFoDggBISAEhEAoBEQgoWDTk4SAEBACQkAEojkgBISAEBACoRAQgYSCTU8SAkJACAgBEYjmgBAQAkJACIRCQAQSCjY9SQgIASEgBEQgmgNCQAgIASEQCgERSCjY9CQhIASEgBAQgWgOCAEhIASEQCgERCChYNOThIAQEAJCQASiOSAEhIAQEAKhEBCBhIJNTxICQkAICAERiOaAEBACQkAIhEJABBIKNj1JCAgBISAERCCaA0JACAgBIRAKARFIKNj0JCEgBISAEBCBaA4IASEgBIRAKAREIKFg05OEgBAQAkJABKI5IASEgBAQAqEQEIGEgk1PEgJCQAgIARGI5oAQEAJCQAiEQkAEEgo2PUkICAEhIAREIJoDQkAICAEhEAoBEUgo2HL/pP/93/91P/30k/vxxx/dd99957Zt2+a++uort3XrVrdlyxb7+vTTT92mTZvcxx9/7D766KMyv3gsz/nss89+eQ1e8y9/+Yv75ptv3F//+lf33//93+4f//hH7j+QXlEICIHEIyACickQs6lv2LDBrVq1yj3xxBPu/vvvd6NGjXJDhw51/fv3d5deeqnr3bu3a9eunWvZsqVr0qRJmV8dO3Z0vXr1cv369bPnDxgwwI0ePdpNnjzZzZgxw73wwgvu3XffdT/88ENMUNBtCAEh4BMCIpACjtbf//53O/1jQaxdu9YtW7bMPfnkk27q1Klu7NixbtiwYY5Nvnv37q5NmzauWbNmrkGDBq5WrVruT3/6k6tevbqrXLmy+93vfud22GGHMr923XVXd8ABB7g//vGP9vxDDjnENW/e3EjorLPOcn369HGDBw9248aNc9OmTXPz5s1zixcvdq+99pr78MMP7V4LCI/eSggIAc8QEIEUcMBwTb311ltu9uzZ7tZbb3XdunVzRx99dLlIIRviCPOY3Xff3dWvX9916tTJDRkyxAjlnXfeKSA6eishIAR8Q0AEkqcRI55B7GHFihVmYdxyyy124scFdcIJJ7gjjjjC1ahRw7FxY1H867/+a5kWRRhiyPY5//Ef/+F22203s1gOP/xw17hxY3fmmWea+wuyw0JZvXq1xWXyBJleVggIAc8QEIHkcMD+9re/uc8//9ziCkuXLnVTpkxx1113nWvfvr2rU6eO22WXXSInimwJhcdBbNwzhEI8BRfbY489ZnGadevWWWCez0wCgC4hIATSh4AIJIdj/sknn7i5c+e6K664wjVt2tRiFlgYf/jDHxwnfKyMf/mXf4nU0igPgXCv3DP3vtNOO7kqVaq4gw46yGIzgwYNcjNnznR8ZjLHdAkBIZA+BEQgIcecUzcpsASbn332WXfvvfe6K6+80gLUdevWNXfQb3/7W2/IIlti4TPh6qpXr55r27atBf3J7CJz7IMPPrD04JCQ6mlCQAh4hoAIJMSAkU1FQJwaCzKXLrvsMnPz/Nd//ZdXFka2pFHa4/7t3/7NssTOO+88c2+RFkx9CTEgubZCTC49RQh4hIAIJMRgrVmzxk2YMMFqLAiI16xZ0zKp2Ex9clGVRgzZ/u83v/mNuehIFz7mmGMss2zkyJGOGBBJBLqEgBBILgIikCzGlpM0hX4EjhcsWOBuvPFGd9ppp7l9993X/fu//3vi3FTZkkemx+21116uUaNG5tp68MEH3fLly3+pKZFFksVk00OEgEcIiECyGCwyjd544w03YsQIV7t2bbfHHnsYcfgWFM+04ef6b2BC9hbuPIofyUCjqh78wFGXEBACyUFABFLCWHJaZsNDWuTuu+92F1xwgbloyKjKthI815uzb69XqVIlV61aNcva6tmzpxEwle5Yc8SRdAkBIeA3AiKQDOOHNhQB8pdfftlqHxo2bOh23nlnuaqykE8pieQgE6w3UpzJWnv//fdNMPJ//ud/JOaYYQ7qT0LABwREIBlGCQmPiRMnulatWlndA1YHAfKSNkf9vWxdLlxbuLX22Wcfk2+59tprLZ707bffyhrJMAf1JyHgAwIikCKjtHnzZhMTvPnmmy1IThFgEms5oia83//+9yYSef7557sxY8a4JUuWWEGi3FpFJqN+FAIeICACcc7hRqF24emnnzbJdIK/UW+yaXj/HXfc0e2///4mVz9//nzrfaL+JB7sGrpFIfD/CKSeQNiwqKAePny4SagjmY7LKg0beNSfEbfgf/7nf1odzUknneQuv/xyK8z84osvrMpfq1QICIF4I5BaAsFdQle+lStXWuOmY4891tE/I+pNNa3vT3yEviU9evSwtF96pWzcuNEy4VQ/Eu9NRHeXXgRSSyCQB705LrnkEkfxG355qqrTuoFH/bmp4MciYRwQbUQaBQl5WvpiJeoSAkIgfgikjkDo/01fcFJJL774YtOwoq5D5FF2JlWhSAYiwRqh2n/gwIGmcIw1IiKJ3waiO0o3AqkiEAT+KGLDbUWvcSwPSZHEhziKExTWCGm/tN5F7Xf9+vXmdlTtSLo3LX36+CCQKgL56KOPrJ1s165drb4D8pDlEV8CCXqRVK1a1R1//PGub9++bsaMGda0S7Io8dlEdCfpRSAVBILrAxfII4884s455xyT1yh+2tXv8SUSxoZsrYMPPth16dLFjR071lyQGzZskFsrvXuXPnkMEEgFgRDzoFPg2WefrSB5BeRI4kCyWI2IWWJFciDYtm1bDJaRbkEIpBOBxBMI5EFKKOmhKhCMt5WRDUHh1iI2Qr3OiSeeaIkQU6dOtVoeikF1CQEhUDgEEksgQdfA559/3gQRIQ8FzP0nkKIkQ6925GaQjKelML1H6NHO2JNtp0sICIH8IpBYAiHbijqP3r17O7rl4UNXwDxZBMJ4kvKLckCNGjXMrTV58mTL1CLjTpcQEAL5RSBxBMLJk6D5ihUr3KBBg1y9evXM8hB5JIs8iloi/EwtDyTSunVrN2TIEDdz5kw7QChbK78biF493QgkjkBwX2zatMnddddd1nIWiYzim41+Ty6ZQCRYJLi1xo0bZ22IsUaxSOTWSvdmp0+fewQSRyAEzUePHu1atmzp8JETdBVhJJcwio9t4Nbac889Xf369S3tl97spPx+//33uV9BekUhkGIEEkUgn332mVu4cKE744wzrMq8+Oai39NDJIw1Bwgq2U8//XRHj5d58+aZRfLjjz86CTSmeNfTR88ZAokiEDKuLr30UhUKel7rkQ+iJwMPbS3cWlu2bDGV35ytIr2QEEgpAokgEAKlpG/edtttrlatWo5GRfnYhPSa/lowuDL3228/16hRI9e9e3c3fvx4t2bNGrm1Urrx6WPnBoFEEMiXX35prquzzjpLxCHro9Q5QIviSpUqWfMwEi1efvllh+tTbq3cbCh6lXQhkAgCWbt2revZs6dJgMtK8NdKKMTY0XcEa4TmYYcccojr2LGju+eee9z777/vvvvuu3Stfn1aIVBBBLwnkI8//tg99NBDVu+hVrQij/KQEHERerLTTvfqq692s2bNcu+884779ttvHZLxuoSAECgdAa8JhLx++kRccMEFbueddy7VdVGejUWPTR8RkbFF9h6SKCgYINIoSZTSNw/9Vwh4SyAsbvL6Bw8ebIFz6Vylb9PPJdHj1tp3333dMcccY6rNY8aMsSA71oguISAEMiPgLYF88cUXJlfCqVH9zEUeuSITDiK77babubVuuOEGawPw9ttvO5R+5dbKvInor+lFwFsCWb16tWld1a5d2xEY5StXm4heJ72ExDyimj0gkuOOO87UnIm1qZI9vRulPnlmBLwjEE6B33zzjTUTqlu3rmXTaMNP74afz7FH6Re5eNxa9GWfMGGCW7lypfvhhx8yryb9VQikDAHvCARXwhtvvOGuu+46WRyq+SjIHAhqR1q0aGHWCLUjuFAlh5Ky3VIf91cIeEcgn376qbvzzjtdq1atCrJ55POEq9f2w3LCpUWQnUw/GpO1adPGTZkyxVxaJHPoEgJpRcArAsF9RYolUhR//OMfRSCyQHI+BwJrA9dVtWrVHG5S5E+wPiCObt26ueuvv94999xzpqclKyStW6c+Nwh4RSBUCi9evNgdffTR1mEwbSf4oIoa3zwbHYFe6heKf/F3HsOpmdOzEgx+bemADRiCHd0q0U+jEHWvvfayCnVIg54iV111lfWWweKYP3++pfbivlKjKm2gQsAzAnn99dfd7bff7g466CDbINNGIBAD8uQ1a9Z0derUsVTTTp06ueJfVFYfeuihrmrVquZ2YbNMG1ZlfV6I4sgjjzSpdwpRr732WpM0mTFjhnv66acdys70WEcmB5kTsrBQ8aXAkI6Xsjy0fQoBzwhk7ty57pxzznFVqlRJ/IaI5YDPHRJAs4nNrnnz5tb3mz7vAwYMMDJ94IEHXPEvSBZZe1x99MIgFRVXDG4/Gi3RpTENVkmQjlu5cmW39957G/GCw7HHHusQ3sS6QAdr9uzZRhabN282UUV1LtTWKASyQ8ArF9bw4cNtE6BwsKwTpu//pzUr6aMXXXSRoyr6mWeesfjPxo0bHYkEnIbpvsiJuPgXf+f/SNx/8MEHVnDJyZqmShReQiS4uHzHqKz7x2LD0sDlCWEMGzbMgcOrr75qHQo///xz9/XXX5v2Fam5ki7JbtPQo4RAgIAXBIK/mcXer18/k+JOoksGfzyWVYMGDcwldc0117j777/fPfvss0YcfH5cJ+U9HbMpUjeDC4biS07bWCjUNTRp0sRO5pBVWZtx3P+PRcXn2GOPPdzhhx/uWrdu7S6++GLHoYOWto8//rhJt4ODqsqD5a/vQqBiCHhBIJyoX3rpJXfmmWd6v9EV34ixBAjiogqLi4r6lgULFtipOF8poug7vfvuu+6OO+5wp556qqtevboFkH0LuHOQwMog+I1rjhTbk08+2V1++eVu2rRpRrwKdldsg9CzhUBpCHhBIO+9954bNWqU+fKLb8C+/86JmRgFuku4qdBdokEWKcvltTZKG+ii/+O1keX48MMPLauNuhpiJWQiYQn5gulOO+1kQppkSw0dOtR0qyjygxxpEkXWnoLdRUdePwuB3CLgBYEgH9G1a1dXo0YNbza3sjZhTs4HH3yw+ebZwFetWuX+8pe/FFywD98/PTAIxFPj0LBhQ3MDxTVGQkCcGA5ptl26dHFDhgxxU6dONfcU+OkSAkKgcAh4QSC4dBBNTFLDqF122cV89Fgdcbhw9RCcHzFihFlEuNXKIsEo/k/Pe9JuaSJGii2taHUJASEQDQKxJhBcOBRtcTomDTMJwV423Xr16rn+/fuby4pMqThcuHqwRt5880336KOPmtIxrjUy3qJOWjjwwANNuob40MMPP2wpt2SXkX2GO06XEBAC0SAQawIhiMwpk/RL/PNRnHhz+Z6c6glYU6PxwgsvWBpuNMNe+rviCiKWQNrvCSecYK5D4g25xKK01yKjiloVDg1Ynuedd54bP368xYfU4Kn0sdN/hUAhEYg1gZC2inzEhRdemAjpEsiD3tuQR5xTSbFGcA1hHS1btsyymihkLG3Tz+X/iL8Q5+jcubObNGmS1W2oAryQ24LeSwhkh0CsCYRNbOLEie60006zdM1cblKFfi1STHv27OkWLVpkGULZDU+0j8ICZONesmSJKSATZD/iiCMc8Ztcu7WCqnEkWDp06OBuueUW63ePq4o6Fl1CQAjED4FYEwippqS3EjPwKb20KDlxmkawjywyqqB93Qy3bt1qtTjIf5ABhSZXpUqVciLWSJyFIkqy0ij+Q7ImLrGh+C1Z3ZEQiA8CsSYQ/N3oPiFHkesTb9FNPp8/01+bUzWaS1RB//TTT/EZ/XLcCVlaJDS89tprRoSDBg1yzZo1s1hFRVN+0ac6//zzrfIeAcNNmzap6185xkYPFQJRIRBbAsEPTzEY7gxO8L6K/wUZVwSlk3Lh1mKjp7izXbt25tYqD8kzlpAO1eNHHXWUGzhwoJs3b57DyvGJYMkSJJYFHhR/QrClfQW6W8ocS8pK0OeILYEQQCcDq2XLlkYevhII6sFUlyepyI2Nk42ejROVACRRkBChODIba454B1l1jC19NqgcD6PzFfXyBQOsSsQZSTZYunRpqV9BlTyuWV1CIAkIxJZAWGQ0j2ratGlWm1I2G1chH0PRI7LhVJkT9/DpZJ3txOYkHfSof+yxxyxehbYWul4lkQkBeKwy9KqICREkj1NqLokbKBm/8cYblvCAZQTJ3X333e62226zboTU8JCKfckll1iKMUq/yKmU9UXfFg4UCFnyfL4QzSRhgHlCwsj06dMt8xD1Bcg5SQePbOeVHucPArElEMx9BPGQ4i7kxp+r99p3332t3wSn0jRcbLy4HNkE2Sip3yAwTvEnFgffd911VwvAX3nlldbZj+dEdUHoHFIQ6qQPCE2jsHgZr1mzZplVBVFQg0IWYP369a0ehphWRWM+RecYPV8OOOAA69fCYQmXIHE/tL3uvfdeKzaFzCBa7hMXGaSdL6HNqMZD7+snArElELJwbrzxRgtAF11wvvxMRhES4iz4NFyBWwvZeWTjIRK0qoiNkGWFaCSCjffdd5/76KOPbPPmOVFdxFvWrFljZHHrrbda8y028MMOO8xUfdnUyTTjvrGacLnxOcgGzKU7NcjS4/Up1oSgwAwrDu03momhCECSAfeJhUJnTg5YUeIX1bjpfeOFQGwJBKVYTH0fBRQJDrdt29YylpLouiprCmNZcKLHrUXaL5sf7hpcQQg3Fvoig4x4zVtvveUWLlxoxYm4jfr27WvWEmnJyKXEVe0A4qKNc9CnHSzpc4Ie2HPPPfeLq0tWSaFnlt4vtgTCBoRvmZOYL1ZHcJ8o2lK/Qjpqmi8C42zcuF82bNhQ0DgQ8RneHzcV4/DKK69YHAOriEOJ78KcWCtYJ7jY0IrDmsL6U2fFNK+4wn/22BIImUstWrSwVM9gY/blO6nHCBKS2pnmi1TsINbARl5Il8v69evdk08+aXpe9IanWRfBe3rMY2n4WpgarAHuHxLB1UYqNHEagvoE4wnAQ9zgr0sI5BOB2BIIAU0C6AReg0Xjy/fLLrvMArIEO3UVBgEsDk7gzBvk/0ePHm2y77QIJpjvy9wJc58kKeDmqlatmolf4jZEtfj555+3FGniJWl0pRZm5qX7XWJLIAQKyeShgVCYRRXlc0aOHKksmQKvKywc+sezeTJvCESjfsxJnQ02yvmQ7/cmqM8Xag1ku6FkjOv3xBNPtMA79SdKBy7whEzJ28WWQOjQR0ZKSfUE+V6UYV4f1wjB2AcffDAl06f8HxMrgcJBNvyKXtTX8Fq4C6mnwHWILArxjaT0jgkzD3kO6wYSxYon7kNLBHAiiUFkUtGZp+cHCMSWQF588UXvTo2kfHLqmzNnToCvvhdD4KWXXrLeHjSuClNAiF+frKpAan7cuHFGHGDv02EjLDGEeR64II8PwY4ZM8ZqXeg+iYtVsirFJqh+LRcCIpAddsgZUeGDptIYV4quzAiMHTvW6hponRtGH4xNjzoSXod+IfQpofEUm2TSXVVhyIPngAvWsRp0ZZ6T+mt4BEQgOSQQcvX79etnJ7zwQ5LsZw4ZMsQ2M7KiSHVGQwq3VlkX6am4qyjOpFPiSSed5Kj29z2bKiwpVOR5uFnJ2gL/mTNnmmyL3FplzUD9PxMCIpAcEghNo5A5x02jKzMCEEiw+VGPQZMqSKSsC5kUJPEhjuD5+h7eeibgTj8Xqu8pqoyiwLOsMdf/44+ACCSHBEL2DxXC9MzQlRmBogRCsBsSwWqjZuO7777b7kkUAqJVhTYVj2ncuLHJi4g4whNHgB1uLaw3Au3ofJ177rnurrvu+kUmZbuB0C9CoAQERCA5JBDavSKAp9NcCbPNOVeUQILNDP2piy66yOoWCO5Ss4CGGCKCs2fPNiulNIXf4HX0PRyxQCaIOh5//PGW9vvUU0+Zu5BiRNWPlDyX9R/nRCA5JBAqgidPnmzSHZpcmRHIRCA0DKNCvE2bNqaXRQX//Pnz3dVXX23V4xQCpqGeIyoCDGpIqB8hm434FIrJuBYpQtQlBEpCQASSQwI5/PDD3e23324n55IAT/vfMxEIGyckQlCcfiJXXHGF69ixo7lWyB7KpXx6VJu0T+8LiSD70rNnT3NrUdFODEqXECiOgAgkhwSiIHrx6fXr30siEJ822DTcK24tLBLcsqj/YhGSLadeJL+e02n+iwhEBFLQ+S8CCRenKDRpBW4tBBupb2rWrJm5tegSKmukoEsm1m8mAskhgVSvXt316tXLvfDCC7Ee9ChvTgTiB4EUJyxSfkl2oEfPhAkTHEoRJDxE2VUyynms9/4ZARFIDgmElMhWrVo5+mjryoyACMRPAilKKLhq6UOC4gJuLcnGZ57rafirCCSHBMIprWbNmtbxLg2TJ8xnFIH4TyC4tZjnrVu3tsJZRBppGqYrfQjElkCWL19u2TcE84qefuL8M9lCZA2RiYX0hk5mv15QIhD/CYQ1yLqkBwkijWiSjR8/3roibtmyxeb+r0def0kiArElkBUrVpjUgk9aR0HgEWlxBP9QjdW1PQIikGQQSDDX6blC2i/V7D169DD37caNG7cfdP2WWARiSyCvvvqqIyjNiT7OVkeme0OR9+mnn7a2oomdOSE/mAgkGQRSfN6T8st6xRrBAl+0aJFJ7v/9738POVP0NB8QiC2B0C+iUaNGbvfdd/eOQI477jhTjN20aZMPc6Cg9ygCSSaBFCUUguxYIxyiCLKTqaW+IwVdZgV7s9gSCHpSLVu2dHvuuad3BELfhfbt25tPGEFAXf9EQASSfAJBJBPJeJqrDRgwwCTjN2zY8M9JoJ8Sg0BsCeT99993Z511lvV2Lnq68eFnmhshazJt2jQnK2T7tSICST6BsEaJkSBPQ5C9a9euJsWPthaxweKqy9vPEP3mEwKxJRACcWgiMQF9II2i98jiwQrp27evW7hwoU/zIe/3KgJJD4GwDshMDLK1SPt96KGH3HvvvZf3eaY3KAwCsSUQfKejR492devW9Y5AIBNqQmi3OmrUKEtrlA/45wktAkkHgRQ9UPEzyTD77befKf3i1po6dapJxuPi/cc//lGY3U7vknMEYksgtNicM2eOO/bYY70kEDq+kZlCMJG+FpLFFoEU31TT+ju9XbBG6J1D8zUOi9RN6fIPgdgSCCeTt956ywLpPi60IE8eWWxcWStXrvRvduThjmWBpNMCKbqGiRHusssu7pBDDnGdOnWyHjr0u9flHwKxJRCquKlqpS8ExUpsyEUnoS8/77bbbiZCd+eddzoSA9KelSUCEYEEa/d3v/udJcmcfvrp7sYbb3RPPPGErZFvv/1Wbi1PuCS2BAJ+TKTevXtb32ZcQsHE8/E7ab10K6RVa5rjISIQEUim9Ytb67TTTjMdubffftsytVSEGH8WiTWBfP/9927YsGEWjPZJ0iTTAqHbXtu2bd2MGTNcmnPiRSAikEzrAy8DmYsNGjSwToj33HOPQ42CIkRpysWXSGJNIEweTu3t2rWznPJME8+nv0Ei3bp1s/qQTz75JJVaWSIQEUhZa5ZsrZNPPtkOj88884wp/X7zzTfx3UVTfGexJpCffvrJLVmyxPXv398ymsqaeHH/P1YUwUNI5KmnnnJbt25N3dQTgYhAylqnxEaoZqcG7IwzzrDaEQXZ47lVxJpAiBXg7rnjjjusrqKsiefL/9EK6tKlixs3bpx7+eWXU6UVJAIRgWS7TilAJDZCk7aBAwe6KVOmOCSOcG2rdiQehBJrAgEi8sOnT59ugXTf4yBFFw41Io0bNzYzHeFIcuGRf0/6whCBiECKroNsf6bbZ9OmTe3Q9frrr7uvvvoqlS7geNDGP+8i9gRCAI0e4yeddJLbZ599vM7EKrpYyCrDnVWrVi37bGPGjLGCQ05XSb5EICKQousg25+pHdl1113doYceahp5FIDrDH0AACAASURBVCFSJ6YrWgRiTyDAwwn9uuuuc0cccURiCCRYOGgFkYFC0JDNlfagVK5DJElM9xWBiECCuR/2O9YIbi0yNJGMX7dunUO5QlfhEfCCQD799FMrMiJPPOyk8+F5lStXts5uN998s/v444/dX//618LPiDy/owhEBJKrtYgFf/zxx5tbi9iIrsIj4AWBEAdBFh1JkJ133tkUPnM1CeP0OmSfULmOpXX22We7u+66y7344ouOFMakFFWJQEQguVpzuLXoF9SwYUOrHUHtYdWqVWaNqHakMGTiBYEEUJCNVbt27USk9Ja1iCCTE044wV177bWW8ouZTmW+724tEYgIpKy5H+b/9GWnE+gNN9zgFixY4NavX28Hr2Dv0Pf8IOAVgcydO9fRb7xKlSqJdmWxgND+IlOLoqqjjz7aDR8+3GIjvru1RCAikDAEUdZzglgiab90MuWwSSW7rvwi4BWB4OdE4uDggw92SUrpLW1x8Dl32mkn6w9/ySWXuPHjx7uXXnrJzHQfhRmTSCAkQbBxVatWzR100EEWx+I0TJo2nSlr1qzpDjjgAHO3UCDHZlfamOt/4UmW9YJbq0mTJu7SSy81bS2IBA06ubVyTyZeEQh1EsiiN2vWzGIhaVtobD74e6+//nq3YsWKX9qD+rQwfCYQUq9p00ocDiuYtHKIA8n+Dh06mDQ5KgNXX321u/XWW93IkSOtJ/h5551nqaennHKKjR+EwnN5DRInICBIxVfF6biuw913390dc8wxNhYoWlBrhTxS0mutck8TJb+iVwTCRokkOidxTnZxnbj5ui82GTYvLDA2I1KbSWP0qce0zwSCJXjYYYe57t27Wwrpgw8+aNmBJDqsWbPGmiORgk28Ch/8hx9+aJXT/I3GSa+88oolRaDvRGtX0lDPPfdcIxWSJ4h75WvupPF1wZP1giTKmWee6W6//XYLspOU49Ohq+TtO/r/eEUgwPXll19arQQnPSaI7zLvYRZ24NZCufTCCy+09qCrV682ba24u7V8IpDf/OY31s+7evXqVuzZs2dPd9NNNzliceCNIGZ5O+lx+sWSJjWd15g9e7ZtbH369DE5cw5GnJwZY1kk4V1ZxdcVFh9JKUiiTJs2zQgdt5auiiHgHYGQzsrAjx071mIDaTy1sbGwufHZcYMcddRRVoSIrlbcC6p8IhAsPrJ7OL3S7Oi9994zaw8CQOizIqdYnstr4FIhTXvz5s32HoMGDbL2BSRQiEByRyAcNEn7xdIjKWXEiBFG4BXbPvVs7wiEExwLDzdAmzZtzAdd/LSRpt8hESQejjzySMtQIxd+2bJldjKOY8qvLwTCiZVYG26m+fPnWx1SvjLgmNNYjtQ6LV++3NxbAwYMsLRUAsJpms/5/qwcClgvxEaw3klKwcWIG1ixkfIToncEEnxEMrLuvvtuW2Qy938+qRGMPfbYY90111xjGxF+eCySipyUA7xz9d0XAkFz6eKLL3Zr164t6MbCJoZVQuYQigSnnnqqq1q1qttxxx2VvbVD7iwSiArrslGjRpbsQBwLKzBfh4RcrZ+4vY63BEJRHS4FMlwwSzlZ5Pv0EvfXx0wnU4uUUU5YBNkXLlxoulpxmXi+EAj1N3SQxJpjQy/kBeGjhYZFQlEc/cJRJyCIH/c56NP9Yb0H6wWiHj16tFkjhRxr39/LWwLBPUMAk54aFA5xQvNp8ubzXiFTeikEQfZJkyZZ7QgJCFEH2X0hEDYWrBCUAJ5//nkLfEdhyRHvI7aFrA2HJVyVaEDlc/6k8bWxRnBZMt6PP/64ZdJxSNVVOgLeEkjwsegNcNttt1lefRozsspa7Jxa2XTIPsG/TvYPJBKVv9cXAgFXTqgHHnigdcQk4ypq9wZEAn7169c3lQJctyRTlDUH9P/sXV/0ZUcZe+LEiZaCTcJEFAeHYH+L+3fvCQQfP24alHrpOa7Fsv1iYZPhxEoXRCw1NiCCwtu2bYtEoNEnAmFzxrLFkoOAqeOI8vr666+ttcHMmTMd2Vq4tdIg61PINY3ljlw8hy5iYFgjuBJ1ZUbAewLhY3300UeO7KPmzZtb/rxOZduTSLAAIRMWxkUXXeQefvhhq+r/7LPPLKst8/TI/V99IpAAN4rRcGfhIyfuFqUbEMuRQxNyNsRGOnbsaMWN3KPigJnnfTCO5f2OLE2PHj3cAw884PB0EJeSNbL9npAIAmFBI1NA9hG+ay2kzAuJugJIBLcWQWKI5KmnnjJrZPtpkb/ffCQQDiTMKQ4oo0aNsnaq+UOo7FeGREhlZ0Mje4jixrp165okSnk3ST0+81oBlyCWiKV3xRVXuA8++EBtdItNz0QQCAsKEmEzPP/8821z1MIoeWEERVWHHHKIaTixAeEGxK2V79O1jwQSzCVqQ/CPI+hJem8crq1bt1pBHLIql112mQk4qnak5LkfjGV5vuMCJu7Ur18/N2fOHLdly5a8r5M4zK1s7iERBBJ8UAKdTz75pDvxxBOV8phlzjy1IxAJ+mIUZ9Jn+quvvrITbj4C7VQAs8H5+oUrq2vXrraRYAXkA6NgPmf7nXsgI5EYzZ///GeLB6IMXKlSpdSoVpeHEMI8lip2MrVwaaFKQI0VFmDar0QRCKfnjRs32iJq2rSpAupZkAjWCCRC9gluEE5Zs2bNcsRG8mGNsPioAPb1i8AqAXVOooG6axw2kaB2hEMUaceoASPZQY1UmA1Tz9neisGNSVYerl9cmcRcEdBM+5UoAmEwOYkh+U4RHVlZaAppMWy/GErCg/gIarOdO3c2EsYioTd7LgvpUFNGQdj3L+QvCGZjhcTtwhVJJTt6cbh0IRIJNGa3BkpaG8HfWSOQcosWLYykA4s9bnOgUPeTOAIJgCNVlaYy8geXf+HQ8wLyxUqARKRaGswq/76TrUXcCZVfCTSWfy0ExJHpO03DyNCCRNJ6JZZAODnjimnfvr3ldWN+ZpoE+tuvFxVuLTYb+igg8UADK1xPEAmFVbr8QYAgO9bIo48+auOIpDnJAJr3v5735cWEmAgkgrdj0aJFsVfCzsesTSyBIPuOwuaYMWNsE8SEV6V6+RcN1ghurQsuuMA99thjFqglPgK+uvxAIAiy43ajVzi1IzQloxsiLpnybpx6/PbriELTK6+80i1evNjiYn7MitzcZWIJBHgILJIt8cgjj1jbUTZDTf7tJ39ZeBA8BDcqnmvVqmW1IzNmzLAeFrmZgnqVQiAAiWA9kmFH7Qjd+egjA4mUNQf0/9LXDNXrNB1Dq4xmY2m6Ek0gDCT6Re+++64FvBBLYzOUJVL6gsi0YYAZ2JHyi1sQqfF58+ZZkD1qjag0LdhcfFZIhMpq/PekbyNpThYebl41sSr/2mC9QCK4fLFEggSLXIxV3F8j8QTCAHDywhIZPny4q1mzplWrc7LWYgm3WMiJRy/orLPOMrcWQUQyf+JSFxH3RRen+yM+ghjpKaec4qgdQftLbq1w6wIigYxJ8aXQNJfZi3GaM0XvJRUEgiuL9F7ytqkipukSJwYRSLiFAvlCIpxa0daiV/j9998va6ToyvLkZ9rpItHx7LPPGpFgpSvIHm5dQCBUrVNPRUEn5Jz0WGEqCCRYy+j7r1u3zkToGjdubKctubPCLxYWDHpB+H9PP/106zNN+jTWXlyztThIoK5KR0sOFL5+UU/D5p+LYk/iI6yN1157zfrrkL5NIS5Eorhh+dcHhyvUMEaOHOk+/PDDyNsABPtfPr6nikAAkEZUGzZssHa41Dow2GyE+qoYBrg9EGns1KmTKf2SPhrHi34opCTTDnnw4MHeftGvgsMQrsNcX5ATGXcnnXSSKtkrsDeQ4stcS7IcfOoIhNMW6b2Yl2Si0CNDUtgVIw/IN5B6oJ0uUg8I+02ZMsXkz8E7LhcBZIrrCHZSoV2vXj0rsqPQzqev7t27uyVLljikS3J9YY3QIgGBTeIjWJdIm2ONMM46bGW3XnDx0qdo2rRpRvQcXpN2pY5AggFECA1LhLx4SITBljWS3cIoawMBx/3339+1a9fOTvrkxweSKFH3UwjGfdiwYRa/IY3VRzdmcLrFRZLPC2uEbC3qgCBc1gnaaWXNAf3/Z/cuSQl9+vQxssflmLQrtQSCJULWECc4ZOBbtWol2ZMKmOtFNwxOqbi06M0CkeDWwmWE0GXUsZFg3N98803z99euXdtLP3+hCIQYC24yMu2mTp3qzjzzTIt5FR1v/Zz54EWSDmuBos3evXtbbFAEkjAEyJLAL47UAycF3BhkUmhRZF4U5cWF033g1sJtRCdE3IdRn8Zw06xevdoNGDDA3Fjl/VxRP75QBBIsd2p9sNgplMN6g0hq1Kghfa0sDl0cpLDe6NlC8kaSrtRaIJkGET0buvQFp1I2P6X65oZIyNZiIWHpYY1Q3EmePH5hrIIoLk7WWJ9UEOOW4R6jJoZs37/QBFJ0fHBHQiQUlJKBh26aT9hli3EuH4duFnGr6dOnRzrni45jLn4WgRRBMRCeoxCoQ4cO5tKSCGNuCCRwa1GAiIQGqaKTJk2yU21UQXZcmOh6zZ492/Xq1csr10yUBII1gut3+fLlbsKECe6cc86xKuxcbrhJey0SELDEqfzHkotqzhfZ7nLyowgkA4xvv/22e+ihh9y5557r6IeMS0vVubkhEjYGSJnF1LZtW0tiQDKe2hFqNKIIspNmiSwL7WqxknwIqkdJIEWXzObNm93MmTMt644qbGJeBI6TRgC5+jwUMVN0S3JCEi4RSIZRxK1CsyD8lXR2o9qaGodcTaK0vw5uQTZpTmW0XYVIUAiIKsgOaX399ddu0KBBJhjpQ/FcXAgE7EiMYOxwB5IwceCBB2qtlBAbQZT0mGOOMawybD3e/UkEUsKQQSKYmVQqk8aI/xKJAiRQ5O/NnTUCmVatWtXRp4L4E6czgtv5KJArPtSMMcF8XDFUDXMPdJvzYXzjQiABppAI1gjWJH3vcWvRP54DgmpH/rleOJzQWgIxUg6ouVASCMYgiu8ikCxQJ2OHoCEZO/jv6YsMkfjg6vDF2mHTxvVB9fMtt9ziXnjhBavgBftcto0N0ni//PJLq+QmcYKGQBwOKCj1Ba+4EUjRZYRLkJbF+PsbNmxokihqLf1PEmGOUSM1efJks3yjSiIpOmZhfxaBZIEcJ1UqmImNcMKiqArpZhVUbb8oKrL5Bm4tNnEye1q3bu1uuukm613x+eefZzFK2T2EzC8C5/Q06devn7kTOBBAXj5YHgHGcSYQTtW4BKkdIT2+b9++ltkY3Lu+72Ck2rVrV1Nq8NkKEYFkt+/YoxhoiARf79ChQy1Ti/4YVF7LGskdmYAl2VoEHMmOIg5F/ciCBQtM8I8MICyT0pRO+R8uSGp82MhoojRnzhx37733Wo9w6hhwsfh6Mo4zgQRLivWCNYIkClYl8v+kyKvO6udEErwZyJzkW00gGI98fBeBhESVUzFEgt+eEyxBdjK1VDeSOyIJTqpYJbTV7dy5s/V0AXea9kAknHRJeCj+FRAHFuPYsWPN/YhCKvGWJJC9DwRSdGkR0yKe2L9/f1e/fn0jbrLxiI+kdc0wF9k/kNL39RKBhBw5goa4QlauXGmnYyYC2VpK9809gbDRQNAsOE6wpIu2aNHChOoQ+sv0hYgdGmfHH3+8VZrjcqSYC4sjCRuWbwRCHAsSQTKeU/dVV11lFiaHgyQQenDYKc93Egw4GFFYG1UKe8jt75eniUB+gSLcD7hKWBj0wRgyZIhtWn/605+k8FtCGmN5FpgeWzIZ+0YgRVfXF1984VasWGGuSYLJderUSaVsPMRJHBXlapp6+dgaWgRSdGaH/JksCvy9uE1ICR04cKBl9aigquQNUORQMWx8JpCimXAQCckSfJ60zQksYb4gUeJzuUwWCbmVlftpIpByQ1byEyAR0kPpN0HDHxQ4CZSpdqRim2XaNpZsPq/PBBKsIKx31gvimtT/IGZK2i+uxjS5tUjmIOWZLE/fLhFInkaMoC7ZJ5dffrll+9AeFItERVUik2wIoqzHJIFAii49dOiw3lEDoN00WXi4d9IQZA/Ueumbk8uap6L45utnEUiekA1OV2vXrrX4CGm/FMnJrSUCKYscsvl/0ggE651YIm16EbekuJM0bkgk6dYI9Udow2GFoXTs0yUCyfNoQSQEx1atWmU1CN26dXMNGjQwOQMp/YpMsiGLTI9JGoEUXYbEAnAD03L67LPPtmJPLPhMOCTlb0joXHHFFQ4rxKdLBFLA0aIKmsKqUaNGWYMZ2qkmZQHocxSWDJNMIMGSJLX1vffeszRXrPckzzE8E3zG++67L/j4XnwXgRRwmJBEwRohWIaZTtrvqaeeaimMPijAJnkB+/bZ0kAgrBcUBxAdnDVrlrv22mutrgcxwqTFEvFGIOGD686nSwQS0WhRiEg19fjx462zG9W5e+65p/XK8G0z0/0W1voA7zQQSNGlSVIKfeyHDx/u2rRpY+10CT4nZe5BiGRr0oOIAmWsLx8uEUhEo0QuPCRC9gkWCXIbtAjldJWURaHPkT9iSRuBBH1HSPslThDUWiVljlEPAonQUgChz48++iiinal8bysCKR9eOX80ZjqxEU5Xjz32mBs8eLBJdNDZTWq/+duAfd940kYgRRcelexLly41awQZG9ZKUiSEDj/8cHNtI/niwyUCidEoYZGQgfLII4+YNYLSL1pBgeic75ue7j93hJhmAgmWLKd05OIhkb333jsRNSOk86IUTT8cHy4RSIxGCTM9kER5+eWX3YQJE9x5551nIoK+yo6LNHJHGkWxFIE4ixNQN/HEE0+Y6gOZTL5bIsR1atSoYX3mY7Q1lXgrIpASoYn2H7i21q9fbxo5VLOT4keWhrK18rMhF92cffhZBPLz+qRyG6udLC36sR900EFet1WgqBDX9ZgxY0zmhTqyOF8ikDiPjnMmbUAGChLY9MNQkF0EAsGJQLZfuDR6o98IJJIEySAkXfBC0BQtzpcIJM6j45wLlEvpWkbjmTvuuMOIpGbNmtYjw4fTsu4x96QnAtl+4eL6hUQmTZrkOnbs6P3aIJ2XbCyyzuJ8iUDiPDrF7o0gO4HDqVOnOiRRUC6ldoSWukkrrBLplE46IpBii+P/f6Xo8K677nL05KGuwtd5hMsaKRe6bsb5EoHEeXSK3VtQO0IaI7UjkydPdueff77bd999jUR8XSy679LJIhM+IpBii+P/f6UAjx4jPXr0cHShzISdD38jnbdv375uw4YNmT9oTP4qAonJQJT3NgiyM7nIQEH+4IwzznCk/dIm04cFonssP2kUxUwEUvKKoZIb9w+Nmny1zhGP5P7ffffdkj9oDP4jAonBIFTkFgK9oCeffNJdfPHFZrqTxUE2h9xaFduki27YcftZBFLyqgnWxLBhw7xVvWYNM8avv/56yR80Bv8RgcRgECpyC7i1SPXj1IVk/IMPPuguuugia2JFEWLcNj7dT25ITQRS8qoJ1gTKDm3btrU4oW/zjgMgbqznn3/easNK/rTR/kcEEi3+OX33gEgWLFhgyqWtW7c2PzBFiElvyuPbBlHR+xWBlL10aJWL+CIB9YriHcXzuW/qW77//vuyP2xEjxCBRAR8vt42qGZn0j3zzDPWUrdatWpeZ6REsXjj/p4ikLJXECmwixYtckcddZSXBEJR5MSJE93XX39d9oeN6BEikIiAL8TbkgK4bNkyd88997h+/fq5Zs2auT322MPLxRT3Db3Q9ycCKXsFkfZOi9xzzjnH7bffft5Z4VWrVnU333yz+/TTT8v+sBE9QgQSEfCFelsCilgjVLWOHj3aGlgh2Ibmjlrq5iYeUWjy4P1EINmtIFLeb7rpJmuL69t8JxOrf//+jiLiuF4ikLiOTA7vC7cWkgibN292L774ohs5cqRr1KiRrJEdRCA5nGaxfClkgKiXIs3dt8LCvfbayxJiPvjgg1hiy02JQGI7NLm/MbJTIJKgEyJpv02bNjUpbIk0+kUmskCyWx+0kEYavU+fPs43ResqVaq4rl27xroWRASS3TxM5KPeeustk4xHNoGmPJAI6YN0R+MrCtdMmt8TzMGfkzKCgGx4JcmTi0CyW5Ko9VJwS02Iby1wd9llF2sux4EvrpcIJK4jU4D7+uabb2xxLVmyxEQaqXwNNIRUhFh4iwTCoBcEPWBQFyDxgVqATKQqAslugWB1EwOkZfROO+2UEctM+MbhbxAeruZXXnkluw8bwaNEIBGAHse3xBoZP368u+CCC0ykEYuEU3AcFlKS74H6HIiDLCFIoVevXtZlDz0n0rDJINptt91+ZYmIQMq3ioiDIDyKhefLfGL91a9f3wqEy/dpC/doEUjhsI71O5HyiBw2RDJ9+nQTo6tVq5Y3i82XTaH4feKuQvQP8T/as5KyiWWIKCAnZ0j9xBNPdJUrV95uLEQg5VtOYOubVpwIpHxjrEdHjADmPkFHJOPnz5/vbr31VmvQgxuFU3DxzU+/h3dz4U7BXXj22WdbtfTTTz+dMV2Tamqy5o444ojtfPgikPItlscff9zcQT41ZBOBlG+M9eiYIbBp0yaHLAotdRs3bmwkgsgbbhcF2ctPHsSVUIfdddddXYMGDcxdiAjm1q1bHfU6mS4sQwT1cC0efPDBJpAJ9iKQTGiV/DcORKeeeqq1PvDl4CMCKXk89R8PEPjxxx+tIxqS0rNnz3a02WTjIjtE2lrlJxA2BNxVFIfhJnzzzTeNPOimh/WX6aKGBymLxYsXWyoqr4EfXwSSCa2S/yYCKRmbivxHMZCKoJei537++edu6dKl1iWNdptHH320pf5S3auMrcxkgqVAGi5uE1xQHTp0cEOHDjWF1fLIU2CdbNu2zU2bNs3SOvfee28RSDnX3lNPPeVatmxpNU+yQMoJXikPF4GUAo7+9WsEiJGsXbvW/PJt2rSx1MiSahV8Waj5uk8IhAwryJZ40ksvvfRrQMvxF1yKNBDD+pAFUg7gnHOKgZQPr2wfLQLJFik9zhAITsNka5FmSn49gWAytnxKkcwXaWCNkVlFvAKLgwI2JLkpBiPWUZEL8t64caO5v3CB8TPKArrKRuCRRx5xaMD5pLigGEjZ46pHeIwAVb6k/pIiSdEbRU81a9bMWLeQrw07Dq9LPIiNCekJMquQh6Gf9ZQpU0wNllhSri5iJbiz+CopbpKr90rC64ARMaYJEyb8KhU6DnOntHsQgSRhBuozlIoAFgl1CyiGLl++3JRPM9UtlLZQfP8fFgfKqa1atXI33HCDBbxJhUbIr7QAeanAlvJPAut86SobAeYnlt/tt9/uXSW6CKTs8dUjEoIA1ggbJrILDz/8sHVE7Ny5s1klBH0Jticp9Ze6mNq1a7uTTz7Z9e7d240YMcLNmDHDqoaxyugOqSt6BEiDxt2KNEylSpW8qmWiVghrllqguF6KgcR1ZDy+L8iErC36Od92222WOYRrB3lqKqo5sfuUBkxsh/oXeszTkAvZkRNOOMFddtll1oN+zZo1BScMCOrbb7+1NOstW7ZYLATcdW2PAHEjuhJC8iQ0+GTtUi+EDD3p3nG9RCBxHRmP7wu/M35/NjZOf8hpT5061Q0ZMsQq2+vWrbtdVXXcFzVpuLRFPeuss8yyuv/++x2V46tXr3br16+3Oo1CxyM+++wzu4c777zTTtcLFy60fi8eT5u83HrQDwShUA4ucZ9rRe+PmFq3bt0sjpYXcHLwoiKQHIColygbAU7LnNSpZYBIEAkkL5+NGY0ixBspUIwqSyZIuWXRkq1z2GGHWRe7Fi1amDruLbfcYtlPdHaksC+K0z5xD1wyNBh67LHH7FSNJYQrjX4XkyZNshRreoHj+9flLP5B7Q3zzLeOhLh+L730UlPMjutYikDiOjIJuy9O6Lhd2AARCSTwTj0JmUoQCqnARx55ZGRdEnGp0YO6SZMmvxAGmzTpt1hSuEK4dz5Doa2NYCoQkOde7r77bpPlwEfOpkgdDi428LvqqqvcsmXLDOOo7jO43zh8pwtnly5dTInXJ7cplgiHKtYGnyGulwgkriOTgvvCKuE0zakezS2sE+pK6GGN/lb37t3dKaec4po1a2bWALUm9MuoXr26WSvoSpVWBc//kfCuVq2aPY/nIgyJVYFvmW5v+MavvfZa6xePa4qajeeee86sJTKpILqoA+JYO2QSgdH1119v908cpviGiM8c9yBkTOEiMag4bz75nuLE4cAMHTfcV74lcRx44IFu1KhRFk/MN1ZhX18EEhY5PS8vCHDKxm+N/hZ+ffL3R48ebQV5tODt2bOnWQhkPzVs2NDVq1fPSAFiKP51zDHHGFHgLuN5fEFMnOCJySBvQXU4BXlxvbDWSJEm5oKG1kEHHVRmNhGbJW7BAQMGmIYZzw9SiuP6OfNxX8SocD2iP1Y0tuDLz9RU0ceEsYvrJQKJ68ik9L5wu+C/px8GCweXDbpRyHgQsMZief/99y04j3vptddeK/GL/0NE7733nj2P57KZEoD+4osvrBgPKwjSiutFWvQdd9xh6cKcSLPJYMMqw6VFbQppoBAJZPzJJ5+kqn6EAldqc4hr+UIaRe/z0EMPtXHDdRrXSwQS15HRfaUSAQgU8oTs5syZYzGN5s2bW2woTBCYxIQ6deqYO5C+Is8++6z1e8EtltQYCRsuhwRkZHBf+pZ9BYlwz1jQuHfjXDQqAknlNqUPHUcEiLWgbYWlheuCWA1WRNFTaUV+JruMzoczZ840q47EgCRma1HISeo4wfOK4BXlc6k3at26tXv77bfjOFV/uScRyC9Q6AchEA0CnDCxOqg4JuZz/vnnW9opCQC5PD1TSAeJkGl20UUXmYYZ7r2kXe+8844VeWJ5RUkCFXlv4nnoqW3YsCHWwyMCifXw6OaSjgCnZSqN586da71CTjvttLx3zSM7jRRRpGZIjsN5TwAAEhtJREFUUFiyZIltVMSDfHdrkXVGggQS+igHVGQTj/K5WJ/Dhw+PfRadCCTpO5Q+X6wRIAsMXz2nZdJw2dyLp+fmeiMjnZX3wLrBImGzGj9+vLlLfHdpUbuD64rYT2kp3rnGNNev16lTJ/fQQw9VuAVAvie/CCTfCOv1hUARBMj4wsVCi2CUe6lFoT86RYFR9FMhWwuNskCCPqhmJxAd5+BtEUjtR7LqVq5caa45Up0h4lxv6oV8vSuvvNI+T9z7vYhAis9E/S4EcohAEN+gqI0UYrJq7rnnHnMfIVXBBl7Ijam094JIKNxEX2vVqlXu448/NsHGHMKR85fCYsL19uKLLxohU0hZ2meM+/+wDMm2YwwoHo26iLWsAROBlIWQ/i8EKoAAopLr1q0zyRYq3qmAr1+/vsU50P3Kt7uqPBsm90P2T9C//a677jLCq8DHz/tTIQ8sD6w5FJ+x5MrzmeP2WNyKJE/QEgFrNe4xKRFI3qe43iBNCFBfQQ0CRYwU7+HHRs+offv2VjWPbz7uPeQ5AdPvhNgIfTTmz59vJMhmHSe3FgFzMB48eLDJlcSNDMLcD+Rx/PHHm/KAD+tGBOLDKOkevUGA6nn6T9x8881WBY1bKMxGEpfnsKGR9kuQHQWAOFXtI+9y4YUXWrFgXPCq6H2g94YCLy5EHy4RiA+jpHuMJQJsphT9QRgPPPCAWRoU6hFHwA2E4GGcYhxhNrfApUJV9AUXXGAFjiQBRHHhzsEKQt6FFrUdO3Y0nStav4b5bHF8DskMZJIh5OnDJQLxYZR0j5EiEFSIEwhnYVMdzCaGLMi4ceOsaO3UU0+1zQzCiFNcI5ebJNYIrjgUk9Egw1WH2GO+/fQEyrdt22byLs8884zFO6jzoNFXLj9flK9FajWuQ9J3sfQgSh8uEYgPo6R7jBQB3FJ0Vnz88cdNXvuSSy4xKyNohEX9Bv22SR2l9sA32fBsN07SjP/whz9Ysy0k45HfJ0Egn7UjxFwgKeplkKjHnYY4IkQdRdpztliV93F8FgixX79+5iaMU6yptMUnAikNHf0vFQhQ80CXQYKyEMXSpUtNyHDixInmKiF7Cl87p282MFRSOY0XouivvBtRIR6Py4gCRLSaaGA1Y8YMy9ZC7TcXMRIIG4mVxYsXW/YaGVbnnnuuO+644yy4X4jPWOj3QGaG7pKkePt0iUB8Gi3da4UQYHPDNUDLV9xRgUw8UiLIeaB+i3tm4MCBRhbEMQiC51KPqtAbU77fD7HHNm3auBtvvNHNmzfP5PNxbYExzbgQbCSVuaQv/g9hIOnCmEDiWBs090KG/sQTT3SVK1dOjKuqpPEg6+2KK64w0qzQJC/wk0UgBQZcbxcNArhZiF2gOTVixAh3zTXXWDfCdu3aWcdDfOoQBm4p+m5gYVBTkFYro6SNrvjfg9oRmh+BYdu2bR0uvj//+c/WQ56uiIhErlmzJuMX1h5tjQmKU31NDAArjz7vWDlsrHFPey6OSZjfIWJSvjnU+HSJQHwaLd1raAQgEPz106dPtw2OHhu0xuV0G6bPRphNIunPwY+PgCFkQhtZyADVXyy6QYMGZfxCcbZDhw4mpXLYYYcZYUDaSY0jZZoD1AaBFy67XLgAQy+SEE8UgYQATU/xDwEyhQjGrlixwjYy3yUvMm1E+tsOXrq6kG6n1TLdM327RCC+jZjuNzQCpOMiukev7Pvuu8/6btAvO0l1BCIR/0gES23BggUWNwo9uSN6oggkIuD1ttEiQLAWiY4+ffq4Ro0aWX8M34v+RB5+kQeuU1J3kbpBONE39xUrWAQS7T6md48IARYr1sjrr79uGT/du3e3oK02Yb82YZ/HiwQBsswQTvS1R70IJKINTG8bPQLERagBofKXIkGEA6kop58EBXM+b0669/gTIfMMIUjicr5eIhBfR073nVMEIBMsEmoZKFqjWDCodk5TRpCIpzDEQ8Zaw4YNHdIs1L/4eolAfB053XfOEcCtRR4+SqgUshEfIchOWqk21sJsrGnBGdVdUpixfrGCfb1EIL6OnO47rwgQZCczhmroZs2aWc2I3FoikYoSHFppFEaiJDx16lSr1s/rRM7zi4tA8gywXt5PBBCzQ35jy5Yt7sknn7SqdTreVXQD0fPTTUJkXqFwMHLkSLdx48bYt6wta/WKQMpCSP9PNQJkx2CNUCU8evRoR7ZWnTp1HNXDIoN0k0GY8d9///1NO4xDCTpg+ZbCz/fiFYHkG2G9fmIQQCSQFqq4tdBrQi8LFVX6fyjQLjIpjVBwXaEbhmQJirs+Vp1nWsgikEyo6G9CIAMCWCMox3744YfWCwOJd0T/UOsVgYhASiMQyKNatWrW74ODyA8//JBhhvn3JxGIf2OmO44BAnQmpCc3qrNdunQxtxaNpUrbRPS/9JLMHnvs4bp16+YeffTRGMze3N2CCCR3WOqVUoYA/mv82PSvwK3VoEEDc2mRZYPLQoSRXsIoOvbMByzVmTNnuk2bNiVqlYhAEjWc+jCFRgCZeJohIYmCJMVll13m6tev72SNiDwCEqlXr56p7dK4LCmuq2CdiUACJPRdCFQQAXzbZGsNGzbMGivRF4N+I1QdK0aSPkKhAJWDRK9evUy4c9u2bRWcYfF7uggkfmOiO/IUAeTi6TmCNAXaWjRTokkSkigikPQRCKneRx55pHvggQeslTLWatIuEUjSRlSfJxYI4Osm5ZdWrWhrBd32AreGvieXUDgskN597LHHulGjRrk33ngjFnMyHzchAskHqnpNIeCcFYl9+eWX7tlnnzXdI2oAqlSpYmm/1I6IRJJHIpAH1ea4L4mHoa3mY5+PbBewCCRbpPQ4IRACAWpHIJG3337b3FpDhw61bC3kLEQgySMQyINDAi1qn3/+eQua+15tXtq0F4GUho7+JwRyiABy8S+//LLpIHXu3NnRC1uSKMkiEdSbkbuhRojxTjJ5sDREIDncIPRSQiBbBNasWWPNhCARWSLJIREOBsQ8UCxIwyUCScMo6zPGDgFqRyCRKVOmWBEi2Tq0OBWZ+EkmpOu2bdvWPfjgg450XVyXabhEIGkYZX3G2CLASZUGVrQ2bd26tUMyHiLBl67U33iTCWoD1Pjstdde1jNm4sSJ7p133ontXMvHjYlA8oGqXlMIZIlA0Hdk69atVoQ4fPhw17x5cyMRyaHEm0AgeZqMdejQwWo90EdLcsZVpiktAsmEiv4mBCJAgKDrq6++6iZNmmQpoBDJvvvuK7fWDvEikiBVl74wl156qXUWRJ49aTIl2SwBEUg2KOkxQqBACJC1w0a0du1aN3bsWGs+hItkxx13tFaoipFESybU71AkiDR779693VtvvWVaaAWaHrF7GxFI7IZEN5R2BHBrfffdd+7jjz92L7zwgnVCbNmypdtnn31kjURsjZB2jVgm9TzUeTBOaQmYZ1qXIpBMqOhvQiAmCKCttW7dOjdhwgQ78VLNvt9++6mJVYGJhIZQEHirVq3cTTfdZBL+ZNKl/RKBpH0G6PPHGgFcWojw0XcEyfj77rvPnXTSSW733XdXz5ECkghpuieccIIbN26cCzoKJr1IMJuFIQLJBiU9RgjEAAFSfgnWzpgxw1133XXutNNOczVq1JBbK89EcsQRR5j198gjj5gkDZlWIo+fF4QIJAYbg25BCJQHgR9//NE2MuoOkM1APgP9JWTjFWSveJCd9Gl6eWDlge2VV15pysq4E3Vtj4AIZHs89JsQiD0CBNnJ1KLvCNXsnIyRjD/44INFIDmwRoh37L///q5Tp05u+vTpv0iTgLuu7REQgWyPh34TAl4hAJHQe2Tu3LnuhhtucO3bt3d169a10zNV0rJIsrNISM/F6sDiwDU4aNAg62G+efNmiz95NSkKeLMikAKCrbcSAvlEAItk6dKl7qqrrnLHHXectVOlWhqXjGRRMhMJuPz2t7+1inKy28477zz36KOPuk8++SSfQ5WY1xaBJGYo9UHSjsDf/vY3kxCnCHHWrFlGJGQOBdpaskZ+TSKQR+3atV2PHj3c5MmT3fLly82iI86kq2wERCBlY6RHCAHvEEARls3wzjvvdN26dXPUjxAjCToipplMsMqo7kdKn7qOq6++2lyAX3/9taOvva7sERCBZI+VHikEvEGANFMqpImR0FZ15syZtlFikaS9on3nnXd2p5xyirvjjjvcm2++6RCyxHpTam75p7cIpPyY6RlCwCsEIBKUYleuXOlmz57tbr31VvP1N23a1FWtWjXRgfYgJZesKuJCuKpuu+02w4HGT99++62sjgrMZhFIBcDTU4WAjwhs3LjRPffcc9Za9+yzzzbXFuKAuLcQCvQ9e4v7R2Z9jz32cAceeKD1oKdT4M033+wWLVpkFodcVbmZuSKQ3OCoVxEC3iBAJTVV7WQaIR//+OOP26m8a9eu7tBDD/W+TzsuqoYNG5qVNWLECCMN9MRIyeVzQx5yV+VmuopAcoOjXkUIeIlAkLlFQeKcOXPc7bff7i6//HJ3zjnnmOZWvXr1rCcJlkncAu9YGpUqVbL7IyDeokUL16VLF6scv+eee9y8efPca6+9Zm4qLwfHg5sWgXgwSLpFIVBIBFCZpc8Faa39+/d3TZo0cXvuuWfsCOT3v/+9kQf317dvX+sKiOAkEuuqGi/MjBGBFAZnvYsQ8AaBwMW1fv1669c+f/58k/SgwRUijj179rRqbYLwDRo0cLVq1cqL24t028qVK7vq1avb+6BCTCzjkksucUOGDLGGWxT9cX8kCLz//vtOqbiFnWYikMLirXcTAt4iQEowpLJs2TIrVHzooYccriL6uA8YMMCEHRF3zNVXr169rLXvsGHDjCzQpVq4cKFbvXq1ZZWRQaUrWgREINHir3cXAkJACHiLgAjE26HTjQsBISAEokVABBIt/np3ISAEhIC3CIhAvB063bgQEAJCIFoERCDR4q93FwJCQAh4i4AIxNuh040LASEgBKJFQAQSLf56dyEgBISAtwiIQLwdOt24EBACQiBaBEQg0eKvdxcCQkAIeIuACMTbodONCwEhIASiRUAEEi3+enchIASEgLcIiEC8HTrduBAQAkIgWgREINHir3cXAkJACHiLgAjE26HTjQsBISAEokVABBIt/np3ISAEhIC3CIhAvB063bgQEAJCIFoERCDR4q93FwJCQAh4i4AIxNuh040LASEgBKJFQAQSLf56dyEgBISAtwiIQLwdOt24EBACQiBaBEQg0eKvdxcCQkAIeIuACMTbodONCwEhIASiRUAEEi3+enchIASEgLcIiEC8HTrduBAQAkIgWgREINHir3cXAkJACHiLgAjE26HTjQsBISAEokVABBIt/np3ISAEhIC3CIhAvB063bgQEAJCIFoERCDR4q93FwJCQAh4i4AIxNuh040LASEgBKJFQAQSLf56dyEgBISAtwiIQLwdOt24EBACQiBaBEQg0eKvdxcCQkAIeIuACMTbodONCwEhIASiRUAEEi3+enchIASEgLcIiEC8HTrduBAQAkIgWgREINHir3cXAkJACHiLgAjE26HTjQsBISAEokVABBIt/np3ISAEhIC3CIhAvB063bgQEAJCIFoERCDR4q93FwJCQAh4i4AIxNuh040LASEgBKJFQAQSLf56dyEgBISAtwiIQLwdOt24EBACQiBaBEQg0eKvdxcCQkAIeIuACMTbodONCwEhIASiRUAEEi3+enchIASEgLcIiEC8HTrduBAQAkIgWgREINHir3cXAkJACHiLgAjE26HTjQsBISAEokVABBIt/np3ISAEhIC3CIhAvB063bgQEAJCIFoERCDR4q93FwJCQAh4i4AIxNuh040LASEgBKJFQAQSLf56dyEgBISAtwiIQLwdOt24EBACQiBaBEQg0eKvdxcCQkAIeIuACMTbodONCwEhIASiRUAEEi3+enchIASEgLcIiEC8HTrduBAQAkIgWgREINHir3cXAkJACHiLgAjE26HTjQsBISAEokVABBIt/np3ISAEhIC3CIhAvB063bgQEAJCIFoERCDR4q93FwJCQAh4i4AIxNuh040LASEgBKJFQAQSLf56dyEgBISAtwiIQLwdOt24EBACQiBaBEQg0eKvdxcCQkAIeIuACMTbodONCwEhIASiRUAEEi3+enchIASEgLcI/B99vrTG3GiVhQAAAABJRU5ErkJggg==;" parent="1" vertex="1">
          <mxGeometry x="382.5" y="799.1299999999999" width="35" height="35" as="geometry" />
        </mxCell>
        <mxCell id="6JY8YTlF_zlxLqDkcj-Z-46" style="edgeStyle=orthogonalEdgeStyle;rounded=0;orthogonalLoop=1;jettySize=auto;html=1;" parent="1" source="6JY8YTlF_zlxLqDkcj-Z-32" target="6JY8YTlF_zlxLqDkcj-Z-43" edge="1">
          <mxGeometry relative="1" as="geometry">
            <Array as="points">
              <mxPoint x="190" y="730" />
              <mxPoint x="400" y="730" />
            </Array>
          </mxGeometry>
        </mxCell>
        <mxCell id="6JY8YTlF_zlxLqDkcj-Z-48" value="&amp;nbsp;Provider release" style="rounded=1;whiteSpace=wrap;html=1;verticalAlign=top;align=left;" parent="1" vertex="1">
          <mxGeometry x="40" y="900" width="700" height="130" as="geometry" />
        </mxCell>
        <mxCell id="6JY8YTlF_zlxLqDkcj-Z-49" value="" style="edgeStyle=orthogonalEdgeStyle;rounded=0;orthogonalLoop=1;jettySize=auto;html=1;" parent="1" source="6JY8YTlF_zlxLqDkcj-Z-50" target="6JY8YTlF_zlxLqDkcj-Z-52" edge="1">
          <mxGeometry relative="1" as="geometry" />
        </mxCell>
        <mxCell id="6JY8YTlF_zlxLqDkcj-Z-57" style="edgeStyle=orthogonalEdgeStyle;rounded=0;orthogonalLoop=1;jettySize=auto;html=1;entryX=0.5;entryY=1;entryDx=0;entryDy=0;exitX=0.5;exitY=0;exitDx=0;exitDy=0;" parent="1" source="6JY8YTlF_zlxLqDkcj-Z-50" target="6JY8YTlF_zlxLqDkcj-Z-43" edge="1">
          <mxGeometry relative="1" as="geometry">
            <Array as="points">
              <mxPoint x="190" y="880" />
              <mxPoint x="400" y="880" />
            </Array>
          </mxGeometry>
        </mxCell>
        <mxCell id="6JY8YTlF_zlxLqDkcj-Z-50" value="Check contracts are compatible with existing services" style="rounded=1;whiteSpace=wrap;html=1;" parent="1" vertex="1">
          <mxGeometry x="130" y="950" width="120" height="60" as="geometry" />
        </mxCell>
        <mxCell id="6JY8YTlF_zlxLqDkcj-Z-51" value="" style="edgeStyle=orthogonalEdgeStyle;rounded=0;orthogonalLoop=1;jettySize=auto;html=1;" parent="1" source="6JY8YTlF_zlxLqDkcj-Z-52" target="6JY8YTlF_zlxLqDkcj-Z-54" edge="1">
          <mxGeometry relative="1" as="geometry" />
        </mxCell>
        <mxCell id="6JY8YTlF_zlxLqDkcj-Z-52" value="Deploy application" style="rounded=1;whiteSpace=wrap;html=1;" parent="1" vertex="1">
          <mxGeometry x="330" y="950" width="120" height="60" as="geometry" />
        </mxCell>
        <mxCell id="6JY8YTlF_zlxLqDkcj-Z-53" value="" style="edgeStyle=orthogonalEdgeStyle;rounded=0;orthogonalLoop=1;jettySize=auto;html=1;dashed=1;" parent="1" source="6JY8YTlF_zlxLqDkcj-Z-54" edge="1">
          <mxGeometry relative="1" as="geometry">
            <mxPoint x="730" y="980" as="targetPoint" />
          </mxGeometry>
        </mxCell>
        <mxCell id="6JY8YTlF_zlxLqDkcj-Z-58" style="edgeStyle=orthogonalEdgeStyle;rounded=0;orthogonalLoop=1;jettySize=auto;html=1;entryX=0.5;entryY=1;entryDx=0;entryDy=0;exitX=0.5;exitY=0;exitDx=0;exitDy=0;" parent="1" source="6JY8YTlF_zlxLqDkcj-Z-54" target="6JY8YTlF_zlxLqDkcj-Z-43" edge="1">
          <mxGeometry relative="1" as="geometry">
            <Array as="points">
              <mxPoint x="590" y="880" />
              <mxPoint x="400" y="880" />
            </Array>
          </mxGeometry>
        </mxCell>
        <mxCell id="6JY8YTlF_zlxLqDkcj-Z-54" value="Update contract tag" style="rounded=1;whiteSpace=wrap;html=1;" parent="1" vertex="1">
          <mxGeometry x="530" y="950" width="120" height="60" as="geometry" />
        </mxCell>
        <mxCell id="6JY8YTlF_zlxLqDkcj-Z-55" value="" style="edgeStyle=orthogonalEdgeStyle;rounded=0;orthogonalLoop=1;jettySize=auto;html=1;dashed=1;" parent="1" edge="1">
          <mxGeometry relative="1" as="geometry">
            <mxPoint x="50" y="979.5" as="sourcePoint" />
            <mxPoint x="130" y="979.5" as="targetPoint" />
          </mxGeometry>
        </mxCell>
        <mxCell id="6JY8YTlF_zlxLqDkcj-Z-56" value="" style="aspect=fixed;html=1;points=[];align=center;image;fontSize=12;image=img/lib/azure2/devops/Azure_DevOps.svg;" parent="1" vertex="1">
          <mxGeometry x="79.99999999999955" y="926" width="30" height="30" as="geometry" />
        </mxCell>
        <mxCell id="BnxUdg12QkFs8ArTiwHM-3" value="" style="edgeStyle=orthogonalEdgeStyle;rounded=0;orthogonalLoop=1;jettySize=auto;html=1;" edge="1" parent="1" source="BnxUdg12QkFs8ArTiwHM-1" target="BnxUdg12QkFs8ArTiwHM-2">
          <mxGeometry relative="1" as="geometry" />
        </mxCell>
        <mxCell id="BnxUdg12QkFs8ArTiwHM-1" value="User service (v1)" style="rounded=1;whiteSpace=wrap;html=1;fillColor=#dae8fc;strokeColor=#6c8ebf;" vertex="1" parent="1">
          <mxGeometry x="1000" y="200" width="120" height="60" as="geometry" />
        </mxCell>
        <mxCell id="BnxUdg12QkFs8ArTiwHM-6" style="edgeStyle=orthogonalEdgeStyle;rounded=0;orthogonalLoop=1;jettySize=auto;html=1;entryX=0;entryY=0.5;entryDx=0;entryDy=0;" edge="1" parent="1" source="BnxUdg12QkFs8ArTiwHM-2" target="BnxUdg12QkFs8ArTiwHM-4">
          <mxGeometry relative="1" as="geometry" />
        </mxCell>
        <mxCell id="BnxUdg12QkFs8ArTiwHM-7" style="edgeStyle=orthogonalEdgeStyle;rounded=0;orthogonalLoop=1;jettySize=auto;html=1;entryX=0;entryY=0.5;entryDx=0;entryDy=0;" edge="1" parent="1" source="BnxUdg12QkFs8ArTiwHM-2" target="BnxUdg12QkFs8ArTiwHM-5">
          <mxGeometry relative="1" as="geometry" />
        </mxCell>
        <mxCell id="BnxUdg12QkFs8ArTiwHM-2" value="New user topic" style="ellipse;whiteSpace=wrap;html=1;rounded=1;fillColor=#fff2cc;strokeColor=#d6b656;" vertex="1" parent="1">
          <mxGeometry x="1241" y="190" width="80" height="80" as="geometry" />
        </mxCell>
        <mxCell id="BnxUdg12QkFs8ArTiwHM-4" value="Claim service (v1)" style="rounded=1;whiteSpace=wrap;html=1;fillColor=#e1d5e7;strokeColor=#9673a6;" vertex="1" parent="1">
          <mxGeometry x="1400" y="140" width="120" height="60" as="geometry" />
        </mxCell>
        <mxCell id="BnxUdg12QkFs8ArTiwHM-5" value="Payment service (v1)" style="rounded=1;whiteSpace=wrap;html=1;fillColor=#e1d5e7;strokeColor=#9673a6;" vertex="1" parent="1">
          <mxGeometry x="1400" y="260.88" width="120" height="60" as="geometry" />
        </mxCell>
        <mxCell id="BnxUdg12QkFs8ArTiwHM-8" value="{&amp;nbsp;id,&lt;span&gt;name&amp;nbsp;&lt;/span&gt;}" style="text;html=1;strokeColor=none;fillColor=none;align=left;verticalAlign=middle;whiteSpace=wrap;rounded=0;" vertex="1" parent="1">
          <mxGeometry x="1150" y="200" width="40" height="20" as="geometry" />
        </mxCell>
        <mxCell id="BnxUdg12QkFs8ArTiwHM-9" value="Provider" style="text;html=1;strokeColor=none;fillColor=none;align=center;verticalAlign=middle;whiteSpace=wrap;rounded=0;fontStyle=1" vertex="1" parent="1">
          <mxGeometry x="1040" y="100" width="40" height="20" as="geometry" />
        </mxCell>
        <mxCell id="BnxUdg12QkFs8ArTiwHM-10" value="Consumers" style="text;html=1;strokeColor=none;fillColor=none;align=center;verticalAlign=middle;whiteSpace=wrap;rounded=0;fontStyle=1" vertex="1" parent="1">
          <mxGeometry x="1440" y="100" width="40" height="20" as="geometry" />
        </mxCell>
        <mxCell id="BnxUdg12QkFs8ArTiwHM-11" value="I need &lt;b&gt;id &lt;/b&gt;and &lt;b&gt;name&lt;/b&gt;" style="text;html=1;strokeColor=none;fillColor=none;align=left;verticalAlign=middle;whiteSpace=wrap;rounded=0;" vertex="1" parent="1">
          <mxGeometry x="1530" y="160" width="110" height="20" as="geometry" />
        </mxCell>
        <mxCell id="BnxUdg12QkFs8ArTiwHM-12" value="I need &lt;b&gt;id &lt;/b&gt;" style="text;html=1;strokeColor=none;fillColor=none;align=left;verticalAlign=middle;whiteSpace=wrap;rounded=0;" vertex="1" parent="1">
          <mxGeometry x="1530" y="280.88" width="110" height="20" as="geometry" />
        </mxCell>
        <mxCell id="BnxUdg12QkFs8ArTiwHM-13" value="" style="edgeStyle=orthogonalEdgeStyle;rounded=0;orthogonalLoop=1;jettySize=auto;html=1;" edge="1" parent="1" source="BnxUdg12QkFs8ArTiwHM-14" target="BnxUdg12QkFs8ArTiwHM-17">
          <mxGeometry relative="1" as="geometry" />
        </mxCell>
        <mxCell id="BnxUdg12QkFs8ArTiwHM-14" value="User service (v2)" style="rounded=1;whiteSpace=wrap;html=1;fillColor=#dae8fc;strokeColor=#6c8ebf;" vertex="1" parent="1">
          <mxGeometry x="1000" y="449.12" width="120" height="60" as="geometry" />
        </mxCell>
        <mxCell id="BnxUdg12QkFs8ArTiwHM-15" style="edgeStyle=orthogonalEdgeStyle;rounded=0;orthogonalLoop=1;jettySize=auto;html=1;entryX=0;entryY=0.5;entryDx=0;entryDy=0;" edge="1" parent="1" source="BnxUdg12QkFs8ArTiwHM-17" target="BnxUdg12QkFs8ArTiwHM-18">
          <mxGeometry relative="1" as="geometry" />
        </mxCell>
        <mxCell id="BnxUdg12QkFs8ArTiwHM-16" style="edgeStyle=orthogonalEdgeStyle;rounded=0;orthogonalLoop=1;jettySize=auto;html=1;entryX=0;entryY=0.5;entryDx=0;entryDy=0;" edge="1" parent="1" source="BnxUdg12QkFs8ArTiwHM-17" target="BnxUdg12QkFs8ArTiwHM-19">
          <mxGeometry relative="1" as="geometry" />
        </mxCell>
        <mxCell id="BnxUdg12QkFs8ArTiwHM-17" value="New user topic" style="ellipse;whiteSpace=wrap;html=1;rounded=1;fillColor=#fff2cc;strokeColor=#d6b656;" vertex="1" parent="1">
          <mxGeometry x="1241" y="439.12" width="80" height="80" as="geometry" />
        </mxCell>
        <mxCell id="BnxUdg12QkFs8ArTiwHM-18" value="Claim service (v1)" style="rounded=1;whiteSpace=wrap;html=1;fillColor=#e1d5e7;strokeColor=#9673a6;" vertex="1" parent="1">
          <mxGeometry x="1400" y="389.12" width="120" height="60" as="geometry" />
        </mxCell>
        <mxCell id="BnxUdg12QkFs8ArTiwHM-19" value="Payment service (v1)" style="rounded=1;whiteSpace=wrap;html=1;fillColor=#e1d5e7;strokeColor=#9673a6;" vertex="1" parent="1">
          <mxGeometry x="1400" y="510" width="120" height="60" as="geometry" />
        </mxCell>
        <mxCell id="BnxUdg12QkFs8ArTiwHM-20" value="{&amp;nbsp;id,fullN&lt;span&gt;ame&amp;nbsp;&lt;/span&gt;}" style="text;html=1;strokeColor=none;fillColor=none;align=left;verticalAlign=middle;whiteSpace=wrap;rounded=0;" vertex="1" parent="1">
          <mxGeometry x="1150" y="449.12" width="40" height="20" as="geometry" />
        </mxCell>
        <mxCell id="BnxUdg12QkFs8ArTiwHM-21" value="Provider" style="text;html=1;strokeColor=none;fillColor=none;align=center;verticalAlign=middle;whiteSpace=wrap;rounded=0;fontStyle=1" vertex="1" parent="1">
          <mxGeometry x="1040" y="349.12" width="40" height="20" as="geometry" />
        </mxCell>
        <mxCell id="BnxUdg12QkFs8ArTiwHM-22" value="Consumers" style="text;html=1;strokeColor=none;fillColor=none;align=center;verticalAlign=middle;whiteSpace=wrap;rounded=0;fontStyle=1" vertex="1" parent="1">
          <mxGeometry x="1440" y="349.12" width="40" height="20" as="geometry" />
        </mxCell>
        <mxCell id="BnxUdg12QkFs8ArTiwHM-23" value="I need &lt;b&gt;id &lt;/b&gt;and &lt;b&gt;name&lt;/b&gt;" style="text;html=1;strokeColor=none;fillColor=none;align=left;verticalAlign=middle;whiteSpace=wrap;rounded=0;" vertex="1" parent="1">
          <mxGeometry x="1530" y="409.12" width="110" height="20" as="geometry" />
        </mxCell>
        <mxCell id="BnxUdg12QkFs8ArTiwHM-24" value="I need &lt;b&gt;id &lt;/b&gt;" style="text;html=1;strokeColor=none;fillColor=none;align=left;verticalAlign=middle;whiteSpace=wrap;rounded=0;" vertex="1" parent="1">
          <mxGeometry x="1530" y="530" width="110" height="20" as="geometry" />
        </mxCell>
        <mxCell id="BnxUdg12QkFs8ArTiwHM-26" value="" style="edgeStyle=orthogonalEdgeStyle;rounded=0;orthogonalLoop=1;jettySize=auto;html=1;" edge="1" parent="1" source="BnxUdg12QkFs8ArTiwHM-27" target="BnxUdg12QkFs8ArTiwHM-30">
          <mxGeometry relative="1" as="geometry" />
        </mxCell>
        <mxCell id="BnxUdg12QkFs8ArTiwHM-27" value="User service (v1)" style="rounded=1;whiteSpace=wrap;html=1;fillColor=#dae8fc;strokeColor=#6c8ebf;" vertex="1" parent="1">
          <mxGeometry x="1000" y="700" width="120" height="60" as="geometry" />
        </mxCell>
        <mxCell id="BnxUdg12QkFs8ArTiwHM-28" style="edgeStyle=orthogonalEdgeStyle;rounded=0;orthogonalLoop=1;jettySize=auto;html=1;entryX=0;entryY=0.5;entryDx=0;entryDy=0;" edge="1" parent="1" source="BnxUdg12QkFs8ArTiwHM-30" target="BnxUdg12QkFs8ArTiwHM-31">
          <mxGeometry relative="1" as="geometry" />
        </mxCell>
        <mxCell id="BnxUdg12QkFs8ArTiwHM-29" style="edgeStyle=orthogonalEdgeStyle;rounded=0;orthogonalLoop=1;jettySize=auto;html=1;entryX=0;entryY=0.5;entryDx=0;entryDy=0;" edge="1" parent="1" source="BnxUdg12QkFs8ArTiwHM-30" target="BnxUdg12QkFs8ArTiwHM-32">
          <mxGeometry relative="1" as="geometry" />
        </mxCell>
        <mxCell id="BnxUdg12QkFs8ArTiwHM-30" value="New user topic" style="ellipse;whiteSpace=wrap;html=1;rounded=1;fillColor=#fff2cc;strokeColor=#d6b656;" vertex="1" parent="1">
          <mxGeometry x="1241" y="690" width="80" height="80" as="geometry" />
        </mxCell>
        <mxCell id="BnxUdg12QkFs8ArTiwHM-31" value="Claim service (v2)" style="rounded=1;whiteSpace=wrap;html=1;fillColor=#e1d5e7;strokeColor=#9673a6;" vertex="1" parent="1">
          <mxGeometry x="1400" y="640" width="120" height="60" as="geometry" />
        </mxCell>
        <mxCell id="BnxUdg12QkFs8ArTiwHM-32" value="Payment service (v1)" style="rounded=1;whiteSpace=wrap;html=1;fillColor=#e1d5e7;strokeColor=#9673a6;" vertex="1" parent="1">
          <mxGeometry x="1400" y="760.88" width="120" height="60" as="geometry" />
        </mxCell>
        <mxCell id="BnxUdg12QkFs8ArTiwHM-33" value="{&amp;nbsp;id,&lt;span&gt;name&amp;nbsp;&lt;/span&gt;}" style="text;html=1;strokeColor=none;fillColor=none;align=left;verticalAlign=middle;whiteSpace=wrap;rounded=0;" vertex="1" parent="1">
          <mxGeometry x="1150" y="700" width="40" height="20" as="geometry" />
        </mxCell>
        <mxCell id="BnxUdg12QkFs8ArTiwHM-34" value="Provider" style="text;html=1;strokeColor=none;fillColor=none;align=center;verticalAlign=middle;whiteSpace=wrap;rounded=0;fontStyle=1" vertex="1" parent="1">
          <mxGeometry x="1040" y="600" width="40" height="20" as="geometry" />
        </mxCell>
        <mxCell id="BnxUdg12QkFs8ArTiwHM-35" value="Consumers" style="text;html=1;strokeColor=none;fillColor=none;align=center;verticalAlign=middle;whiteSpace=wrap;rounded=0;fontStyle=1" vertex="1" parent="1">
          <mxGeometry x="1440" y="600" width="40" height="20" as="geometry" />
        </mxCell>
        <mxCell id="BnxUdg12QkFs8ArTiwHM-36" value="I need &lt;b&gt;id,&lt;/b&gt;&amp;nbsp;&lt;b&gt;name &lt;/b&gt;and &lt;b&gt;date of birth&lt;/b&gt;" style="text;html=1;strokeColor=none;fillColor=none;align=left;verticalAlign=middle;whiteSpace=wrap;rounded=0;" vertex="1" parent="1">
          <mxGeometry x="1530" y="660" width="110" height="20" as="geometry" />
        </mxCell>
        <mxCell id="BnxUdg12QkFs8ArTiwHM-37" value="I need &lt;b&gt;id &lt;/b&gt;" style="text;html=1;strokeColor=none;fillColor=none;align=left;verticalAlign=middle;whiteSpace=wrap;rounded=0;" vertex="1" parent="1">
          <mxGeometry x="1530" y="780.88" width="110" height="20" as="geometry" />
        </mxCell>
      </root>
    </mxGraphModel>
  </diagram>
</mxfile>
